
<svg width="155" height="22" viewBox="0 0 155 22" fill="none" xmlns="http://www.w3.org/2000/svg">
<path d="M19.6955 9.06993H18.9679V9.03245H10.8389V12.6453H15.9435C15.1988 14.7485 13.1977 16.2583 10.8389 16.2583C7.84606 16.2583 5.41954 13.8317 5.41954 10.8389C5.41954 7.84606 7.84606 5.41954 10.8389 5.41954C12.2204 5.41954 13.4772 5.9407 14.4342 6.79199L16.989 4.23722C15.3758 2.7338 13.218 1.80664 10.8389 1.80664C5.85083 1.80664 1.80664 5.85083 1.80664 10.8389C1.80664 15.827 5.85083 19.8712 10.8389 19.8712C15.827 19.8712 19.8712 15.827 19.8712 10.8389C19.8712 10.2333 19.8088 9.64212 19.6955 9.06993Z" fill="#FFC107"/>
<path d="M2.84766 6.63483L5.8152 8.81116C6.61817 6.82316 8.56282 5.41954 10.8385 5.41954C12.22 5.41954 13.4768 5.9407 14.4338 6.79199L16.9886 4.23722C15.3754 2.7338 13.2176 1.80664 10.8385 1.80664C7.3692 1.80664 4.36056 3.76529 2.84766 6.63483Z" fill="#FF3D00"/>
<path d="M10.8388 19.8709C13.1718 19.8709 15.2917 18.978 16.8945 17.5261L14.099 15.1605C13.1922 15.8474 12.0649 16.2579 10.8388 16.2579C8.48953 16.2579 6.49475 14.7599 5.74327 12.6694L2.79785 14.9388C4.29269 17.8639 7.32843 19.8709 10.8388 19.8709Z" fill="#4CAF50"/>
<path d="M19.6955 9.06971H18.9679V9.03223H10.8389V12.6451H15.9435C15.5858 13.6554 14.9359 14.5265 14.0977 15.1611C14.0982 15.1606 14.0986 15.1606 14.0991 15.1602L16.8945 17.5257C16.6967 17.7055 19.8711 15.3548 19.8711 10.8387C19.8711 10.2331 19.8088 9.6419 19.6955 9.06971Z" fill="#1976D2"/>
<path d="M38.314 7.92487C38.2674 8.0042 38.2184 8.06253 38.167 8.09987C38.1157 8.1372 38.0504 8.15587 37.971 8.15587C37.887 8.15587 37.7914 8.11853 37.684 8.04387C37.5767 7.96453 37.4414 7.8782 37.278 7.78487C37.1194 7.68687 36.928 7.60053 36.704 7.52587C36.48 7.44653 36.2117 7.40687 35.899 7.40687C35.605 7.40687 35.346 7.44653 35.122 7.52587C34.9027 7.60053 34.7184 7.70553 34.569 7.84087C34.4197 7.97153 34.3054 8.12787 34.226 8.30987C34.1514 8.4872 34.114 8.68087 34.114 8.89087C34.114 9.16153 34.1817 9.38553 34.317 9.56287C34.457 9.7402 34.639 9.89187 34.863 10.0179C35.087 10.1439 35.3414 10.2535 35.626 10.3469C35.9107 10.4402 36.2024 10.5382 36.501 10.6409C36.7997 10.7389 37.0914 10.8532 37.376 10.9839C37.6607 11.1145 37.915 11.2802 38.139 11.4809C38.363 11.6769 38.5427 11.9195 38.678 12.2089C38.818 12.4935 38.888 12.8435 38.888 13.2589C38.888 13.7022 38.811 14.1175 38.657 14.5049C38.5077 14.8922 38.2884 15.2305 37.999 15.5199C37.7097 15.8092 37.3527 16.0379 36.928 16.2059C36.508 16.3692 36.0297 16.4509 35.493 16.4509C35.171 16.4509 34.8584 16.4182 34.555 16.3529C34.2517 16.2922 33.9647 16.2059 33.694 16.0939C33.4234 15.9772 33.169 15.8395 32.931 15.6809C32.6977 15.5175 32.4877 15.3355 32.301 15.1349L32.728 14.4209C32.77 14.3649 32.819 14.3182 32.875 14.2809C32.9357 14.2435 33.0034 14.2249 33.078 14.2249C33.176 14.2249 33.288 14.2762 33.414 14.3789C33.5447 14.4815 33.7034 14.5959 33.89 14.7219C34.0814 14.8432 34.3077 14.9552 34.569 15.0579C34.835 15.1605 35.157 15.2119 35.535 15.2119C35.843 15.2119 36.1184 15.1722 36.361 15.0929C36.6037 15.0089 36.8067 14.8922 36.97 14.7429C37.138 14.5889 37.2664 14.4045 37.355 14.1899C37.4437 13.9752 37.488 13.7372 37.488 13.4759C37.488 13.1819 37.4204 12.9415 37.285 12.7549C37.1497 12.5682 36.97 12.4119 36.746 12.2859C36.522 12.1599 36.2677 12.0525 35.983 11.9639C35.6984 11.8752 35.4067 11.7842 35.108 11.6909C34.8094 11.5929 34.5177 11.4809 34.233 11.3549C33.9484 11.2289 33.694 11.0655 33.47 10.8649C33.246 10.6595 33.0664 10.4052 32.931 10.1019C32.7957 9.79387 32.728 9.41587 32.728 8.96787C32.728 8.60853 32.798 8.26087 32.938 7.92487C33.078 7.58887 33.281 7.29253 33.547 7.03587C33.8177 6.77453 34.149 6.56687 34.541 6.41287C34.933 6.2542 35.381 6.17487 35.885 6.17487C36.4497 6.17487 36.9677 6.26587 37.439 6.44787C37.915 6.6252 38.328 6.88187 38.678 7.21787L38.314 7.92487ZM41.8216 9.22687V16.3389H40.4566V9.22687H41.8216ZM42.0806 7.02887C42.0806 7.15487 42.0549 7.2762 42.0036 7.39287C41.9522 7.50487 41.8822 7.6052 41.7936 7.69387C41.7096 7.77787 41.6092 7.84553 41.4926 7.89687C41.3759 7.94353 41.2546 7.96687 41.1286 7.96687C41.0026 7.96687 40.8836 7.94353 40.7716 7.89687C40.6596 7.84553 40.5592 7.77787 40.4706 7.69387C40.3866 7.6052 40.3189 7.50487 40.2676 7.39287C40.2209 7.2762 40.1976 7.15487 40.1976 7.02887C40.1976 6.8982 40.2209 6.77687 40.2676 6.66487C40.3189 6.5482 40.3866 6.44787 40.4706 6.36387C40.5592 6.2752 40.6596 6.20753 40.7716 6.16087C40.8836 6.10953 41.0026 6.08387 41.1286 6.08387C41.2546 6.08387 41.3759 6.10953 41.4926 6.16087C41.6092 6.20753 41.7096 6.2752 41.7936 6.36387C41.8822 6.44787 41.9522 6.5482 42.0036 6.66487C42.0549 6.77687 42.0806 6.8982 42.0806 7.02887ZM46.2969 12.7899C46.5395 12.7899 46.7519 12.7572 46.9339 12.6919C47.1205 12.6265 47.2745 12.5355 47.3959 12.4189C47.5219 12.2975 47.6152 12.1529 47.6759 11.9849C47.7412 11.8169 47.7739 11.6325 47.7739 11.4319C47.7739 11.0212 47.6479 10.6945 47.3959 10.4519C47.1485 10.2045 46.7822 10.0809 46.2969 10.0809C45.8162 10.0809 45.4499 10.2045 45.1979 10.4519C44.9505 10.6945 44.8269 11.0212 44.8269 11.4319C44.8269 11.6325 44.8572 11.8169 44.9179 11.9849C44.9832 12.1482 45.0765 12.2905 45.1979 12.4119C45.3239 12.5285 45.4779 12.6219 45.6599 12.6919C45.8465 12.7572 46.0589 12.7899 46.2969 12.7899ZM48.4739 16.7099C48.4739 16.5419 48.4272 16.4089 48.3339 16.3109C48.2405 16.2082 48.1122 16.1289 47.9489 16.0729C47.7902 16.0122 47.6035 15.9702 47.3889 15.9469C47.1742 15.9189 46.9479 15.8979 46.7099 15.8839C46.4765 15.8699 46.2362 15.8582 45.9889 15.8489C45.7415 15.8349 45.5035 15.8115 45.2749 15.7789C45.0322 15.9002 44.8315 16.0472 44.6729 16.2199C44.5189 16.3925 44.4419 16.5955 44.4419 16.8289C44.4419 16.9782 44.4792 17.1182 44.5539 17.2489C44.6332 17.3795 44.7522 17.4915 44.9109 17.5849C45.0742 17.6829 45.2772 17.7575 45.5199 17.8089C45.7672 17.8649 46.0612 17.8929 46.4019 17.8929C46.7379 17.8929 47.0342 17.8625 47.2909 17.8019C47.5475 17.7459 47.7622 17.6642 47.9349 17.5569C48.1122 17.4542 48.2452 17.3305 48.3339 17.1859C48.4272 17.0412 48.4739 16.8825 48.4739 16.7099ZM49.8599 9.49287V10.0039C49.8599 10.1719 49.7549 10.2769 49.5449 10.3189L48.7819 10.4309C48.8472 10.5755 48.8985 10.7295 48.9359 10.8929C48.9732 11.0515 48.9919 11.2195 48.9919 11.3969C48.9919 11.7469 48.9242 12.0642 48.7889 12.3489C48.6535 12.6289 48.4669 12.8692 48.2289 13.0699C47.9909 13.2705 47.7062 13.4245 47.3749 13.5319C47.0482 13.6392 46.6889 13.6929 46.2969 13.6929C45.9749 13.6929 45.6739 13.6579 45.3939 13.5879C45.2539 13.6719 45.1465 13.7652 45.0719 13.8679C45.0019 13.9659 44.9669 14.0639 44.9669 14.1619C44.9669 14.3252 45.0345 14.4465 45.1699 14.5259C45.3099 14.6052 45.4895 14.6635 45.7089 14.7009C45.9329 14.7335 46.1872 14.7545 46.4719 14.7639C46.7612 14.7732 47.0529 14.7895 47.3469 14.8129C47.6455 14.8315 47.9372 14.8689 48.2219 14.9249C48.5112 14.9762 48.7655 15.0625 48.9849 15.1839C49.2089 15.3005 49.3885 15.4639 49.5239 15.6739C49.6639 15.8792 49.7339 16.1475 49.7339 16.4789C49.7339 16.7869 49.6569 17.0855 49.5029 17.3749C49.3535 17.6642 49.1342 17.9209 48.8449 18.1449C48.5555 18.3689 48.2032 18.5485 47.7879 18.6839C47.3725 18.8192 46.9012 18.8869 46.3739 18.8869C45.8465 18.8869 45.3869 18.8355 44.9949 18.7329C44.6075 18.6302 44.2832 18.4925 44.0219 18.3199C43.7652 18.1472 43.5715 17.9465 43.4409 17.7179C43.3149 17.4892 43.2519 17.2512 43.2519 17.0039C43.2519 16.6585 43.3592 16.3669 43.5739 16.1289C43.7885 15.8862 44.0849 15.6972 44.4629 15.5619C44.2575 15.4685 44.0942 15.3425 43.9729 15.1839C43.8515 15.0205 43.7909 14.8059 43.7909 14.5399C43.7909 14.4372 43.8095 14.3322 43.8469 14.2249C43.8842 14.1129 43.9402 14.0032 44.0149 13.8959C44.0942 13.7839 44.1899 13.6789 44.3019 13.5809C44.4185 13.4829 44.5515 13.3942 44.7009 13.3149C44.3509 13.1189 44.0755 12.8599 43.8749 12.5379C43.6742 12.2112 43.5739 11.8309 43.5739 11.3969C43.5739 11.0469 43.6415 10.7319 43.7769 10.4519C43.9122 10.1719 44.0989 9.93153 44.3369 9.73087C44.5795 9.5302 44.8665 9.3762 45.1979 9.26887C45.5339 9.16153 45.9002 9.10787 46.2969 9.10787C46.9129 9.10787 47.4425 9.2362 47.8859 9.49287H49.8599ZM52.3933 10.2139C52.5473 10.0505 52.7083 9.9012 52.8763 9.76587C53.0443 9.63053 53.2217 9.5162 53.4083 9.42287C53.5997 9.32487 53.8027 9.2502 54.0173 9.19887C54.2367 9.14287 54.47 9.11487 54.7173 9.11487C55.1093 9.11487 55.4523 9.1802 55.7463 9.31087C56.045 9.44153 56.2947 9.62587 56.4953 9.86387C56.696 10.0972 56.8477 10.3795 56.9503 10.7109C57.053 11.0422 57.1043 11.4085 57.1043 11.8099V16.3389H55.7323V11.8099C55.7323 11.3012 55.6157 10.9069 55.3823 10.6269C55.149 10.3422 54.792 10.1999 54.3113 10.1999C53.9613 10.1999 53.6323 10.2839 53.3243 10.4519C53.021 10.6152 52.7387 10.8392 52.4773 11.1239V16.3389H51.1123V9.22687H51.9313C52.1227 9.22687 52.2417 9.31787 52.2883 9.49987L52.3933 10.2139ZM68.4023 9.22687V16.3389H67.5833C67.3967 16.3389 67.2753 16.2479 67.2193 16.0659L67.1213 15.3519C66.9673 15.5152 66.8063 15.6645 66.6383 15.7999C66.4703 15.9352 66.2907 16.0519 66.0993 16.1499C65.908 16.2432 65.705 16.3155 65.4903 16.3669C65.2757 16.4229 65.0447 16.4509 64.7973 16.4509C64.4053 16.4509 64.06 16.3855 63.7613 16.2549C63.4673 16.1242 63.22 15.9422 63.0193 15.7089C62.8187 15.4709 62.667 15.1862 62.5643 14.8549C62.4617 14.5235 62.4103 14.1572 62.4103 13.7559V9.22687H63.7823V13.7559C63.7823 14.2645 63.899 14.6612 64.1323 14.9459C64.3657 15.2259 64.7227 15.3659 65.2033 15.3659C65.5533 15.3659 65.88 15.2842 66.1833 15.1209C66.4867 14.9529 66.7713 14.7242 67.0373 14.4349V9.22687H68.4023ZM71.6726 14.5889C71.8966 14.8829 72.137 15.0882 72.3936 15.2049C72.655 15.3215 72.9466 15.3799 73.2686 15.3799C73.894 15.3799 74.377 15.1559 74.7176 14.7079C75.063 14.2552 75.2356 13.5972 75.2356 12.7339C75.2356 12.2812 75.196 11.8962 75.1166 11.5789C75.042 11.2569 74.93 10.9955 74.7806 10.7949C74.636 10.5895 74.4563 10.4402 74.2416 10.3469C74.027 10.2489 73.7843 10.1999 73.5136 10.1999C73.117 10.1999 72.7716 10.2885 72.4776 10.4659C72.1883 10.6432 71.92 10.8952 71.6726 11.2219V14.5889ZM71.6026 10.2909C71.752 10.1135 71.9106 9.95253 72.0786 9.80787C72.2513 9.65853 72.4356 9.53253 72.6316 9.42987C72.8276 9.32253 73.0353 9.24087 73.2546 9.18487C73.4786 9.1242 73.7166 9.09387 73.9686 9.09387C74.3746 9.09387 74.741 9.1732 75.0676 9.33187C75.399 9.49053 75.6813 9.72387 75.9146 10.0319C76.148 10.3399 76.3276 10.7202 76.4536 11.1729C76.5843 11.6255 76.6496 12.1459 76.6496 12.7339C76.6496 13.2612 76.5773 13.7512 76.4326 14.2039C76.2926 14.6519 76.0896 15.0415 75.8236 15.3729C75.5623 15.7042 75.2403 15.9655 74.8576 16.1569C74.4796 16.3435 74.0526 16.4369 73.5766 16.4369C73.152 16.4369 72.788 16.3669 72.4846 16.2269C72.1813 16.0869 71.9106 15.8909 71.6726 15.6389V18.7259H70.3076V9.22687H71.1266C71.318 9.22687 71.437 9.31787 71.4836 9.49987L71.6026 10.2909ZM91.3275 9.22687L89.0385 16.3389H87.9465C87.8159 16.3389 87.7272 16.2525 87.6805 16.0799L86.1825 11.4459C86.1452 11.3292 86.1125 11.2149 86.0845 11.1029C86.0565 10.9862 86.0309 10.8695 86.0075 10.7529C85.9655 10.9955 85.9072 11.2312 85.8325 11.4599L84.3135 16.0799C84.2669 16.2525 84.1665 16.3389 84.0125 16.3389H82.9765L80.6805 9.22687H81.7585C81.8659 9.22687 81.9545 9.25253 82.0245 9.30387C82.0992 9.3552 82.1482 9.42053 82.1715 9.49987L83.4525 13.8679C83.4945 14.0452 83.5319 14.2179 83.5645 14.3859C83.5972 14.5539 83.6275 14.7219 83.6555 14.8899C83.6975 14.7219 83.7419 14.5539 83.7885 14.3859C83.8399 14.2179 83.8912 14.0452 83.9425 13.8679L85.3635 9.47187C85.3869 9.39253 85.4312 9.32953 85.4965 9.28287C85.5619 9.23153 85.6412 9.20587 85.7345 9.20587H86.3295C86.4322 9.20587 86.5162 9.23153 86.5815 9.28287C86.6515 9.32953 86.6982 9.39253 86.7215 9.47187L88.1075 13.8679C88.1589 14.0452 88.2079 14.2202 88.2545 14.3929C88.3012 14.5609 88.3432 14.7312 88.3805 14.9039C88.4085 14.7359 88.4412 14.5679 88.4785 14.3999C88.5159 14.2272 88.5579 14.0499 88.6045 13.8679L89.9065 9.49987C89.9299 9.42053 89.9765 9.3552 90.0465 9.30387C90.1212 9.25253 90.2052 9.22687 90.2985 9.22687H91.3275ZM93.9114 9.22687V16.3389H92.5464V9.22687H93.9114ZM94.1704 7.02887C94.1704 7.15487 94.1447 7.2762 94.0934 7.39287C94.0421 7.50487 93.9721 7.6052 93.8834 7.69387C93.7994 7.77787 93.6991 7.84553 93.5824 7.89687C93.4657 7.94353 93.3444 7.96687 93.2184 7.96687C93.0924 7.96687 92.9734 7.94353 92.8614 7.89687C92.7494 7.84553 92.6491 7.77787 92.5604 7.69387C92.4764 7.6052 92.4087 7.50487 92.3574 7.39287C92.3107 7.2762 92.2874 7.15487 92.2874 7.02887C92.2874 6.8982 92.3107 6.77687 92.3574 6.66487C92.4087 6.5482 92.4764 6.44787 92.5604 6.36387C92.6491 6.2752 92.7494 6.20753 92.8614 6.16087C92.9734 6.10953 93.0924 6.08387 93.2184 6.08387C93.3444 6.08387 93.4657 6.10953 93.5824 6.16087C93.6991 6.20753 93.7994 6.2752 93.8834 6.36387C93.9721 6.44787 94.0421 6.5482 94.0934 6.66487C94.1447 6.77687 94.1704 6.8982 94.1704 7.02887ZM98.1137 16.4509C97.5397 16.4509 97.0964 16.2899 96.7837 15.9679C96.4757 15.6459 96.3217 15.1862 96.3217 14.5889V10.3329H95.4957C95.4164 10.3329 95.3487 10.3095 95.2927 10.2629C95.2414 10.2115 95.2157 10.1369 95.2157 10.0389V9.48587L96.3707 9.32487L96.6787 7.20387C96.6974 7.12453 96.7324 7.06387 96.7837 7.02187C96.8397 6.9752 96.9097 6.95187 96.9937 6.95187H97.6867V9.33887H99.7027V10.3329H97.6867V14.4979C97.6867 14.7779 97.7544 14.9879 97.8897 15.1279C98.0297 15.2632 98.207 15.3309 98.4217 15.3309C98.5477 15.3309 98.655 15.3145 98.7437 15.2819C98.837 15.2492 98.9164 15.2142 98.9817 15.1769C99.047 15.1349 99.103 15.0975 99.1497 15.0649C99.1964 15.0322 99.2384 15.0159 99.2757 15.0159C99.3224 15.0159 99.3574 15.0275 99.3807 15.0509C99.4087 15.0695 99.4367 15.1022 99.4647 15.1489L99.8707 15.8069C99.6467 16.0122 99.3807 16.1709 99.0727 16.2829C98.7647 16.3949 98.445 16.4509 98.1137 16.4509ZM102.325 10.1299C102.624 9.82653 102.953 9.58153 103.312 9.39487C103.676 9.2082 104.094 9.11487 104.565 9.11487C104.957 9.11487 105.3 9.1802 105.594 9.31087C105.893 9.44153 106.142 9.62587 106.343 9.86387C106.544 10.0972 106.695 10.3795 106.798 10.7109C106.901 11.0422 106.952 11.4085 106.952 11.8099V16.3389H105.58V11.8099C105.58 11.3012 105.463 10.9069 105.23 10.6269C104.997 10.3422 104.64 10.1999 104.159 10.1999C103.809 10.1999 103.48 10.2839 103.172 10.4519C102.869 10.6152 102.586 10.8392 102.325 11.1239V16.3389H100.96V6.00687H102.325V10.1299ZM120.819 11.4459V15.3659C120.31 15.7299 119.769 16.0029 119.195 16.1849C118.621 16.3622 117.996 16.4509 117.319 16.4509C116.507 16.4509 115.772 16.3249 115.114 16.0729C114.461 15.8209 113.903 15.4685 113.441 15.0159C112.979 14.5632 112.622 14.0219 112.37 13.3919C112.123 12.7619 111.999 12.0689 111.999 11.3129C111.999 10.5522 112.118 9.85687 112.356 9.22687C112.599 8.5922 112.944 8.05087 113.392 7.60287C113.84 7.1502 114.381 6.8002 115.016 6.55287C115.655 6.30087 116.372 6.17487 117.165 6.17487C117.566 6.17487 117.937 6.2052 118.278 6.26587C118.623 6.32653 118.943 6.41287 119.237 6.52487C119.531 6.63687 119.802 6.7722 120.049 6.93087C120.301 7.08487 120.534 7.25987 120.749 7.45587L120.322 8.12787C120.257 8.2352 120.17 8.30287 120.063 8.33087C119.956 8.35887 119.839 8.3332 119.713 8.25387C119.592 8.18387 119.456 8.1022 119.307 8.00887C119.162 7.91553 118.987 7.8292 118.782 7.74987C118.581 7.67053 118.346 7.60287 118.075 7.54687C117.804 7.49087 117.485 7.46287 117.116 7.46287C116.565 7.46287 116.068 7.55387 115.625 7.73587C115.182 7.9132 114.804 8.16987 114.491 8.50587C114.178 8.84187 113.938 9.24787 113.77 9.72387C113.602 10.1952 113.518 10.7249 113.518 11.3129C113.518 11.9289 113.607 12.4819 113.784 12.9719C113.961 13.4572 114.211 13.8702 114.533 14.2109C114.86 14.5469 115.254 14.8035 115.716 14.9809C116.183 15.1582 116.703 15.2469 117.277 15.2469C117.501 15.2469 117.709 15.2352 117.9 15.2119C118.096 15.1839 118.283 15.1465 118.46 15.0999C118.637 15.0532 118.808 14.9949 118.971 14.9249C119.139 14.8549 119.305 14.7779 119.468 14.6939V12.5869H117.984C117.891 12.5869 117.814 12.5589 117.753 12.5029C117.697 12.4469 117.669 12.3769 117.669 12.2929V11.4459H120.819ZM125.497 9.11487C126.02 9.11487 126.491 9.2012 126.911 9.37387C127.336 9.54187 127.695 9.78687 127.989 10.1089C128.288 10.4262 128.516 10.8112 128.675 11.2639C128.834 11.7119 128.913 12.2159 128.913 12.7759C128.913 13.3359 128.834 13.8422 128.675 14.2949C128.516 14.7475 128.288 15.1325 127.989 15.4499C127.695 15.7672 127.336 16.0122 126.911 16.1849C126.491 16.3529 126.02 16.4369 125.497 16.4369C124.97 16.4369 124.494 16.3529 124.069 16.1849C123.649 16.0122 123.29 15.7672 122.991 15.4499C122.692 15.1325 122.461 14.7475 122.298 14.2949C122.139 13.8422 122.06 13.3359 122.06 12.7759C122.06 12.2159 122.139 11.7119 122.298 11.2639C122.461 10.8112 122.692 10.4262 122.991 10.1089C123.29 9.78687 123.649 9.54187 124.069 9.37387C124.494 9.2012 124.97 9.11487 125.497 9.11487ZM125.497 15.3729C126.169 15.3729 126.671 15.1465 127.002 14.6939C127.333 14.2412 127.499 13.6042 127.499 12.7829C127.499 11.9615 127.333 11.3245 127.002 10.8719C126.671 10.4145 126.169 10.1859 125.497 10.1859C124.816 10.1859 124.307 10.4145 123.971 10.8719C123.64 11.3245 123.474 11.9615 123.474 12.7829C123.474 13.6042 123.64 14.2412 123.971 14.6939C124.307 15.1465 124.816 15.3729 125.497 15.3729ZM133.468 9.11487C133.99 9.11487 134.462 9.2012 134.882 9.37387C135.306 9.54187 135.666 9.78687 135.96 10.1089C136.258 10.4262 136.487 10.8112 136.646 11.2639C136.804 11.7119 136.884 12.2159 136.884 12.7759C136.884 13.3359 136.804 13.8422 136.646 14.2949C136.487 14.7475 136.258 15.1325 135.96 15.4499C135.666 15.7672 135.306 16.0122 134.882 16.1849C134.462 16.3529 133.99 16.4369 133.468 16.4369C132.94 16.4369 132.464 16.3529 132.04 16.1849C131.62 16.0122 131.26 15.7672 130.962 15.4499C130.663 15.1325 130.432 14.7475 130.269 14.2949C130.11 13.8422 130.031 13.3359 130.031 12.7759C130.031 12.2159 130.11 11.7119 130.269 11.2639C130.432 10.8112 130.663 10.4262 130.962 10.1089C131.26 9.78687 131.62 9.54187 132.04 9.37387C132.464 9.2012 132.94 9.11487 133.468 9.11487ZM133.468 15.3729C134.14 15.3729 134.641 15.1465 134.973 14.6939C135.304 14.2412 135.47 13.6042 135.47 12.7829C135.47 11.9615 135.304 11.3245 134.973 10.8719C134.641 10.4145 134.14 10.1859 133.468 10.1859C132.786 10.1859 132.278 10.4145 131.942 10.8719C131.61 11.3245 131.445 11.9615 131.445 12.7829C131.445 13.6042 131.61 14.2412 131.942 14.6939C132.278 15.1465 132.786 15.3729 133.468 15.3729ZM140.865 12.7899C141.108 12.7899 141.32 12.7572 141.502 12.6919C141.689 12.6265 141.843 12.5355 141.964 12.4189C142.09 12.2975 142.184 12.1529 142.244 11.9849C142.31 11.8169 142.342 11.6325 142.342 11.4319C142.342 11.0212 142.216 10.6945 141.964 10.4519C141.717 10.2045 141.351 10.0809 140.865 10.0809C140.385 10.0809 140.018 10.2045 139.766 10.4519C139.519 10.6945 139.395 11.0212 139.395 11.4319C139.395 11.6325 139.426 11.8169 139.486 11.9849C139.552 12.1482 139.645 12.2905 139.766 12.4119C139.892 12.5285 140.046 12.6219 140.228 12.6919C140.415 12.7572 140.627 12.7899 140.865 12.7899ZM143.042 16.7099C143.042 16.5419 142.996 16.4089 142.902 16.3109C142.809 16.2082 142.681 16.1289 142.517 16.0729C142.359 16.0122 142.172 15.9702 141.957 15.9469C141.743 15.9189 141.516 15.8979 141.278 15.8839C141.045 15.8699 140.805 15.8582 140.557 15.8489C140.31 15.8349 140.072 15.8115 139.843 15.7789C139.601 15.9002 139.4 16.0472 139.241 16.2199C139.087 16.3925 139.01 16.5955 139.01 16.8289C139.01 16.9782 139.048 17.1182 139.122 17.2489C139.202 17.3795 139.321 17.4915 139.479 17.5849C139.643 17.6829 139.846 17.7575 140.088 17.8089C140.336 17.8649 140.63 17.8929 140.97 17.8929C141.306 17.8929 141.603 17.8625 141.859 17.8019C142.116 17.7459 142.331 17.6642 142.503 17.5569C142.681 17.4542 142.814 17.3305 142.902 17.1859C142.996 17.0412 143.042 16.8825 143.042 16.7099ZM144.428 9.49287V10.0039C144.428 10.1719 144.323 10.2769 144.113 10.3189L143.35 10.4309C143.416 10.5755 143.467 10.7295 143.504 10.8929C143.542 11.0515 143.56 11.2195 143.56 11.3969C143.56 11.7469 143.493 12.0642 143.357 12.3489C143.222 12.6289 143.035 12.8692 142.797 13.0699C142.559 13.2705 142.275 13.4245 141.943 13.5319C141.617 13.6392 141.257 13.6929 140.865 13.6929C140.543 13.6929 140.242 13.6579 139.962 13.5879C139.822 13.6719 139.715 13.7652 139.64 13.8679C139.57 13.9659 139.535 14.0639 139.535 14.1619C139.535 14.3252 139.603 14.4465 139.738 14.5259C139.878 14.6052 140.058 14.6635 140.277 14.7009C140.501 14.7335 140.756 14.7545 141.04 14.7639C141.33 14.7732 141.621 14.7895 141.915 14.8129C142.214 14.8315 142.506 14.8689 142.79 14.9249C143.08 14.9762 143.334 15.0625 143.553 15.1839C143.777 15.3005 143.957 15.4639 144.092 15.6739C144.232 15.8792 144.302 16.1475 144.302 16.4789C144.302 16.7869 144.225 17.0855 144.071 17.3749C143.922 17.6642 143.703 17.9209 143.413 18.1449C143.124 18.3689 142.772 18.5485 142.356 18.6839C141.941 18.8192 141.47 18.8869 140.942 18.8869C140.415 18.8869 139.955 18.8355 139.563 18.7329C139.176 18.6302 138.852 18.4925 138.59 18.3199C138.334 18.1472 138.14 17.9465 138.009 17.7179C137.883 17.4892 137.82 17.2512 137.82 17.0039C137.82 16.6585 137.928 16.3669 138.142 16.1289C138.357 15.8862 138.653 15.6972 139.031 15.5619C138.826 15.4685 138.663 15.3425 138.541 15.1839C138.42 15.0205 138.359 14.8059 138.359 14.5399C138.359 14.4372 138.378 14.3322 138.415 14.2249C138.453 14.1129 138.509 14.0032 138.583 13.8959C138.663 13.7839 138.758 13.6789 138.87 13.5809C138.987 13.4829 139.12 13.3942 139.269 13.3149C138.919 13.1189 138.644 12.8599 138.443 12.5379C138.243 12.2112 138.142 11.8309 138.142 11.3969C138.142 11.0469 138.21 10.7319 138.345 10.4519C138.481 10.1719 138.667 9.93153 138.905 9.73087C139.148 9.5302 139.435 9.3762 139.766 9.26887C140.102 9.16153 140.469 9.10787 140.865 9.10787C141.481 9.10787 142.011 9.2362 142.454 9.49287H144.428ZM147.081 6.00687V16.3389H145.709V6.00687H147.081ZM153.741 11.9919C153.741 11.7212 153.702 11.4715 153.622 11.2429C153.548 11.0142 153.436 10.8159 153.286 10.6479C153.137 10.4799 152.955 10.3492 152.74 10.2559C152.526 10.1625 152.278 10.1159 151.998 10.1159C151.424 10.1159 150.972 10.2815 150.64 10.6129C150.314 10.9442 150.106 11.4039 150.017 11.9919H153.741ZM154.868 15.3239C154.7 15.5199 154.507 15.6902 154.287 15.8349C154.068 15.9749 153.835 16.0892 153.587 16.1779C153.34 16.2665 153.083 16.3319 152.817 16.3739C152.556 16.4159 152.297 16.4369 152.04 16.4369C151.55 16.4369 151.095 16.3552 150.675 16.1919C150.26 16.0239 149.898 15.7812 149.59 15.4639C149.287 15.1419 149.049 14.7452 148.876 14.2739C148.708 13.7979 148.624 13.2519 148.624 12.6359C148.624 12.1412 148.701 11.6815 148.855 11.2569C149.009 10.8275 149.229 10.4542 149.513 10.1369C149.803 9.81953 150.155 9.56987 150.57 9.38787C150.986 9.20587 151.452 9.11487 151.97 9.11487C152.404 9.11487 152.803 9.1872 153.167 9.33187C153.536 9.47187 153.853 9.6772 154.119 9.94787C154.385 10.2185 154.593 10.5522 154.742 10.9489C154.896 11.3455 154.973 11.7982 154.973 12.3069C154.973 12.5169 154.95 12.6592 154.903 12.7339C154.857 12.8039 154.77 12.8389 154.644 12.8389H149.982C149.996 13.2635 150.057 13.6345 150.164 13.9519C150.272 14.2645 150.419 14.5259 150.605 14.7359C150.797 14.9459 151.023 15.1022 151.284 15.2049C151.546 15.3075 151.837 15.3589 152.159 15.3589C152.463 15.3589 152.724 15.3239 152.943 15.2539C153.167 15.1839 153.359 15.1092 153.517 15.0299C153.681 14.9459 153.816 14.8689 153.923 14.7989C154.035 14.7289 154.133 14.6939 154.217 14.6939C154.329 14.6939 154.416 14.7359 154.476 14.8199L154.868 15.3239Z" fill="#579540"/>
</svg>
