<svg width="118" height="115" viewBox="0 0 118 115" fill="none" xmlns="http://www.w3.org/2000/svg">
<mask id="mask0_0_1" style="mask-type:alpha" maskUnits="userSpaceOnUse" x="-24" y="-51" width="166" height="166">
<path d="M-24 32C-24 77.8396 13.1604 115 59 115C104.84 115 142 77.8396 142 32C142 -13.8396 104.84 -51 59 -51C13.1604 -51 -24 -13.8396 -24 32Z" fill="#D5E8FA"/>
</mask>
<g mask="url(#mask0_0_1)">
<path d="M67.9041 49.1362C67.9041 49.1362 61.6707 61.6057 55.3396 70.2134C52.8202 73.6391 50.2851 76.4527 48.1218 77.6265C46.0041 78.7749 44.2112 80.5587 42.7275 82.5358C38.8853 87.6547 37.1126 94.0633 37.1126 94.0633L20.9219 69.5689C20.9219 69.5689 21.4746 45.626 23.4185 41.6203C26.2517 35.784 27.6201 23.9915 28.7086 21.6433C29.5159 19.9019 31.8218 10.9055 32.0431 10.2441C32.1395 9.95897 32.9064 9.52214 33.9031 9.52344C34.7025 9.52344 36.0605 10.2962 36.403 11.8847C38.1346 19.9123 36.0501 25.207 36.0742 25.4426C36.6848 31.6123 34.849 36.1915 36.1367 37.4044C36.1849 37.4493 36.2734 37.4278 36.3997 37.3477C38.6314 35.9148 52.4849 15.7185 54.1906 15.2823C55.9919 14.822 67.9041 49.1362 67.9041 49.1362Z" fill="#FFB27D"/>
<path d="M41.9838 89.215C41.9838 89.215 41.7631 100.1 41.1323 114.759H0.292969C9.62784 94.8528 17.7434 78.0977 17.7434 78.0977C17.7434 78.0977 40.9969 78.8086 41.9838 89.215Z" fill="#579540"/>
<path d="M82.0601 6.93477L77.046 14.2847L72.1263 21.4979C71.8262 21.8599 71.4792 21.9855 71.1036 21.9497C69.9233 21.8377 68.4624 20.1347 67.3238 19.192L67.2086 19.097C65.7073 17.8549 65.4951 15.6108 66.7372 14.1109L74.2571 5.0208V5.02015L76.4875 2.3243C77.7296 0.823068 79.973 0.610837 81.4736 1.85297L81.5888 1.94802C83.09 3.1895 83.3016 5.43354 82.0601 6.93477Z" fill="#FFB27D"/>
<path d="M77.0464 14.2849L72.1267 21.4981C71.8266 21.8601 71.4796 21.9857 71.104 21.9499L74.2575 5.021C74.264 5.11604 74.7998 12.7114 77.0464 14.2849Z" fill="#EFA26F"/>
<path d="M55.34 70.2128C52.8206 73.6385 50.2855 76.4521 48.1222 77.6259C46.0045 78.7743 44.2116 80.5581 42.7279 82.5352C41.0216 81.7396 39.0764 80.8067 37.1754 79.8823C34.8604 78.7574 34.7712 75.4697 37.0394 74.2517C37.0615 74.24 37.083 74.2276 37.1045 74.2159C39.2294 72.9998 41.407 68.707 41.407 68.707L55.34 70.2128Z" fill="#EFA26F"/>
<path d="M31.9309 10.6162L30.6191 15.9122C30.6191 15.9122 31.7662 16.3816 32.5025 16.017C33.2388 15.6524 33.8397 10.9014 31.9309 10.6162Z" fill="#FFC197"/>
<path d="M69.6554 72.7152H41.447C38.6724 72.7152 36.4023 70.4451 36.4023 67.6705V5.66677C36.4023 2.89215 38.6724 0.62207 41.447 0.62207H69.6554C72.43 0.62207 74.7001 2.89215 74.7001 5.66677V67.6705C74.7001 70.4451 72.43 72.7152 69.6554 72.7152Z" fill="#2B478B"/>
<path d="M72.8025 6.1442V66.7112C72.8025 68.7657 71.1333 70.4467 69.0943 70.4467H42.0083C39.9693 70.4467 38.3008 68.7657 38.3008 66.7112V6.1442C38.3008 4.0896 39.9693 2.40869 42.0083 2.40869H69.0943C71.1333 2.40869 72.8025 4.0896 72.8025 6.1442Z" fill="white"/>
<path d="M61.2117 4.66081H49.8912C48.9694 4.66081 48.2148 3.90628 48.2148 2.98445V2.72079C48.2148 1.79896 48.9694 1.04443 49.8912 1.04443H61.2117C62.1335 1.04443 62.888 1.79896 62.888 2.72079V2.98445C62.888 3.90628 62.1335 4.66081 61.2117 4.66081Z" fill="#2B478B"/>
<path d="M79.5653 34.6915L78.8173 34.9753L73.7895 36.886C73.6717 36.9309 73.5526 36.9687 73.4334 36.9986C71.7688 37.4316 69.9974 36.5436 69.3731 34.9011L69.2995 34.7077C68.6303 32.9474 69.5235 30.9592 71.2838 30.29L75.9711 28.5088L76.3116 28.3792L77.0596 28.0954C78.8199 27.4262 80.8075 28.3194 81.476 30.0803L81.5496 30.2737C82.2189 32.0347 81.3263 34.0222 79.5653 34.6915Z" fill="#FFB27D"/>
<path d="M75.4825 34.8065C74.6433 35.1242 73.1245 35.6886 72.312 35.8052C72.0822 35.8384 71.6584 35.7134 71.2632 35.2805C71.0263 35.0214 70.7991 34.6516 70.6311 34.1399C70.5523 33.899 70.4866 33.6594 70.4592 33.4121C70.428 33.1224 70.4365 32.8333 70.4866 32.5462C70.5328 32.2878 70.7092 32.0527 70.9664 31.9284C70.967 31.9278 70.969 31.9277 70.9703 31.9264C71.8342 31.5137 72.9982 31.0111 74.0196 30.7305C74.7253 30.5359 75.4395 30.8471 75.6628 31.4649L75.7683 31.7533L76.3079 33.2311C76.5312 33.8463 76.168 34.5481 75.4825 34.8065Z" fill="#FFD3B6"/>
<path d="M75.4818 34.8065C74.6427 35.1242 73.1239 35.6886 72.3114 35.8051C72.0816 35.8383 71.6578 35.7133 71.2626 35.2804C71.2203 35.1821 71.1819 35.078 71.1448 34.9673C71.066 34.7264 71.0003 34.4868 70.9729 34.2395C70.9417 33.9498 70.9501 33.6607 71.0003 33.3736C71.0465 33.1151 71.2229 32.8801 71.4801 32.7558C71.4807 32.7551 71.4827 32.7551 71.484 32.7538C72.3479 32.3411 73.5125 31.8385 74.5333 31.5579C74.9858 31.4329 75.4402 31.5156 75.7676 31.7539L76.3073 33.2317C76.5306 33.8462 76.1673 34.548 75.4818 34.8065Z" fill="#FFC197"/>
<path d="M77.2824 41.7599L73.405 42.8152C72.2266 43.1361 71.0008 42.4343 70.6798 41.256L70.5607 40.8172C70.2398 39.6389 70.9416 38.413 72.1199 38.0921L75.9973 37.0368C77.1756 36.7158 78.4015 37.4176 78.7224 38.596L78.8422 39.0347C79.1619 40.2124 78.4601 41.4389 77.2824 41.7599Z" fill="#FFB27D"/>
<path d="M75.1858 41.5699C74.4736 41.76 73.1859 42.0959 72.5115 42.1324C72.266 42.146 71.7745 41.9384 71.4536 41.2932C71.3748 41.137 71.3078 40.956 71.255 40.7464C71.2081 40.5563 71.1723 40.3675 71.1684 40.1767C71.1639 39.9515 71.1925 39.7301 71.255 39.5133C71.311 39.3174 71.4738 39.1488 71.6931 39.0707C71.6951 39.07 71.6958 39.07 71.6971 39.0687C72.436 38.8076 73.4281 38.4958 74.2868 38.3461C74.8799 38.2419 75.4423 38.5271 75.581 39.016L75.6813 39.3649L75.9801 40.4137C76.1181 40.8987 75.7678 41.415 75.1858 41.5699Z" fill="#FFD3B6"/>
<path d="M75.1849 41.5699C74.4727 41.76 73.185 42.0959 72.5105 42.1323C72.2651 42.146 71.7736 41.9383 71.4526 41.2932C71.4097 41.1161 71.3784 40.9384 71.3745 40.7581C71.3699 40.5341 71.3986 40.3115 71.4611 40.0947C71.5171 39.9 71.6798 39.7301 71.8992 39.652C71.9012 39.6513 71.9018 39.6513 71.9031 39.65C72.642 39.389 73.6348 39.0778 74.4928 38.9287C74.9837 38.8421 75.4544 39.0231 75.6803 39.3655L75.9791 40.4143C76.1171 40.8987 75.7669 41.4149 75.1849 41.5699Z" fill="#FFC197"/>
<path d="M13.7676 86.3568C13.7676 86.3568 21.7483 94.0003 27.1277 96.9513L31.201 94.0621V98.3243C31.201 98.3243 39.2117 99.7409 41.7383 98.3243V86.7018L19.238 75.4224L13.7676 86.3568Z" fill="#0A4A28"/>
<path d="M43.4383 97.3989C40.3388 98.0343 33.6588 95.5995 33.6588 95.5995L34.7362 85.1925L27.1877 93.8379C23.3461 92.4083 17.3379 88.678 13.7678 86.3565C11.9905 85.2003 10.8174 84.3937 10.8174 84.3937C15.8549 76.2873 20.9224 68.7056 20.9224 68.7056C22.41 71.6807 25.93 74.2646 29.7456 76.3309C36.0871 79.7656 43.245 81.772 43.245 81.772C43.2424 87.958 43.4383 97.3989 43.4383 97.3989Z" fill="white"/>
<path d="M79.4429 27.261C79.4155 27.2707 79.3876 27.2805 79.3589 27.2896L74.2758 28.5949C72.0409 29.1691 69.7298 27.9602 69.1393 25.9075L68.8372 24.8561C68.2702 22.8855 69.4889 20.8251 71.5656 20.1571L73.244 19.7262L76.6488 18.8519C78.8837 18.2777 81.1948 19.4866 81.7852 21.5392L82.0873 22.5906C82.6465 24.5339 81.4682 26.5644 79.4429 27.261Z" fill="#FFB27D"/>
<path d="M77.1133 25.8419L74.644 26.9552C74.6401 26.9558 74.6355 26.9571 74.6284 26.9591C74.5294 26.9858 74.4292 27.0059 74.3296 27.0209C74.2879 27.0274 74.2456 27.032 74.2046 27.0365C74.187 27.0385 74.1694 27.0385 74.1525 27.0372C73.8804 27.0281 73.6942 26.7397 73.8114 26.4819C74.0444 25.9734 74.1082 25.3856 73.9513 24.8075L73.8927 24.5926C73.8927 24.5907 73.8921 24.5881 73.8908 24.5861L73.6994 23.885C73.5477 23.3264 73.2255 22.8583 72.8042 22.5205C72.7535 22.4788 72.7014 22.4404 72.648 22.4039C72.1597 22.0661 72.2841 21.3005 72.8557 21.141C72.8609 21.139 72.8661 21.1384 72.8713 21.1364L75.5815 20.7263C76.2514 20.5446 76.8965 21.0596 77.0795 21.7301L77.2969 22.5289L77.7604 24.232C77.942 24.9019 77.7832 25.6603 77.1133 25.8419Z" fill="#FFD3B6"/>
<path d="M77.1132 25.8419L74.644 26.9551C74.6401 26.9558 74.6355 26.9571 74.6283 26.959C74.5704 26.9701 74.3894 27.0007 74.1524 27.0371C73.8803 27.028 73.6941 26.7396 73.8113 26.4818C74.0444 25.9734 74.1082 25.3855 73.9513 24.8074L73.8927 24.5926C73.8927 24.5906 73.892 24.588 73.8907 24.5861L73.6993 23.8849C73.5477 23.3264 73.2254 22.8583 72.8042 22.5204C72.8914 22.3928 73.0223 22.2913 73.1929 22.2437C73.1974 22.2418 73.2033 22.2411 73.2085 22.2392L75.9186 21.829C76.4831 21.6754 77.0286 22.0172 77.2968 22.5282L77.7604 24.2313C77.942 24.9018 77.7831 25.6603 77.1132 25.8419Z" fill="#FFC197"/>
<path d="M36.4026 53.7002C36.4026 53.7002 35.2939 44.0203 34.2705 42.133C33.2471 40.2451 32.382 36.4647 33.9555 33.6562C35.5296 30.8464 36.0732 25.4424 36.0732 25.4424C36.6838 31.612 34.848 36.1912 36.1357 37.4041C36.1839 37.449 36.2724 37.4275 36.3987 37.3474L36.4026 53.7002Z" fill="#EFA26F"/>
<path d="M43.525 6.19709L43.139 6.47377L42.751 6.1997C42.8369 6.07861 42.9788 5.99854 43.139 5.99854C43.2978 5.99919 43.4391 6.07731 43.525 6.19709Z" fill="white"/>
<path d="M43.138 5.32422C42.75 5.32422 42.4069 5.51757 42.1992 5.81248L42.444 5.98435C42.5983 5.76626 42.8522 5.62434 43.138 5.62434C43.4218 5.62434 43.6744 5.7643 43.8281 5.97914L44.0722 5.80401C43.8632 5.51301 43.5221 5.32422 43.138 5.32422Z" fill="white"/>
<path d="M43.1383 4.04102C42.3173 4.04102 41.5915 4.4492 41.1514 5.07352L41.3968 5.24539C41.7822 4.69919 42.4195 4.34113 43.1383 4.34113C43.8511 4.34113 44.4846 4.69333 44.8713 5.23237L45.1141 5.05725C44.6733 4.44204 43.9527 4.04102 43.1383 4.04102Z" fill="white"/>
<path d="M43.1383 4.74365C42.5543 4.74365 42.0368 5.0327 41.7217 5.47539L41.9665 5.64726C42.2275 5.28269 42.6552 5.04377 43.1383 5.04377C43.6174 5.04377 44.0425 5.27878 44.3042 5.63814L44.5471 5.46432C44.2313 5.02749 43.7177 4.74365 43.1383 4.74365Z" fill="white"/>
<path d="M114.753 114.765H84.803C83.3668 113.802 75.9082 108.714 72.8217 104.921C72.1681 104.117 69.7756 97.1906 67.9372 91.5665C66.7895 88.0537 65.8572 85.0473 65.6997 84.3579C65.645 84.1176 65.6085 83.6418 65.5864 82.9973V82.9907C65.5083 80.6907 65.615 76.2554 65.725 72.7321L65.7257 72.7158L65.7276 72.6696C65.7329 72.5146 65.7374 72.3623 65.7426 72.2113V72.2061C65.7433 72.1911 65.7433 72.1755 65.7439 72.1605C65.7641 71.5485 65.7836 70.9717 65.8019 70.447C65.8481 69.1359 65.8871 68.1496 65.9034 67.7636L65.9099 67.5839C65.9099 67.5839 65.9106 67.5839 65.9112 67.5832C65.9588 67.5565 67.3994 66.7877 69.3251 68.175C69.79 68.5103 70.2196 69.3201 70.6115 70.3767C70.8622 71.0512 71.0972 71.8259 71.3159 72.6422C72.157 75.7821 72.7605 79.5358 73.0828 80.541C73.6023 82.1653 79.7257 89.3082 80.1085 89.7522C80.1144 89.76 80.1209 89.7671 80.1267 89.7743V78.4942L75.5039 66.125L73.6062 61.0471L72.6525 58.4951C72.6525 58.4951 71.1896 56.0935 69.9625 53.2043C69.4254 51.9401 68.9332 50.5827 68.6286 49.2924C68.5556 48.9851 68.4938 48.6811 68.4443 48.3836C68.4443 48.3829 68.4443 48.3829 68.4443 48.3823C68.264 47.2918 68.2516 46.2801 68.5023 45.4566C68.9495 43.9899 69.9573 43.7139 70.7313 43.7438C70.8114 43.7464 70.8889 43.7536 70.9637 43.762C71.0393 43.7711 71.1141 43.7855 71.1864 43.805C71.3225 43.8408 71.4513 43.8955 71.5711 43.9651C71.5724 43.9651 71.5724 43.9658 71.5731 43.9664C71.7716 44.0823 71.9429 44.2418 72.0757 44.4365C72.0757 44.4365 72.7293 45.29 73.6062 46.437C74.183 47.1922 74.8568 48.0743 75.5039 48.9246C76.6562 50.4395 77.7265 51.8528 78.0207 52.2669C79.6111 54.5057 83.8935 61.8016 83.8935 61.8016L88.9063 62.0119C89.7005 62.0451 90.4564 62.3615 91.0371 62.9037C92.8195 64.5684 96.6625 68.1704 97.1338 68.7062C97.1338 68.882 100.121 70.3181 102.427 71.5967C104.077 72.294 107.212 74.7652 107.212 74.7652C107.862 75.3387 108.357 75.9097 108.607 76.4552C109.682 78.7943 112.597 99.1378 113.991 109.195C114.44 112.428 114.731 114.597 114.753 114.765Z" fill="#FFB27D"/>
<path d="M83.894 61.8013C83.894 61.8013 88.5377 69.3817 89.1523 69.7234C89.7668 70.0652 92.1573 70.5431 92.4301 69.7234C92.7035 68.9032 83.894 61.8013 83.894 61.8013Z" fill="#EFA26F"/>
<path d="M107.237 74.7855C107.229 74.7784 107.221 74.7719 107.213 74.7647C107.213 74.7647 104.078 72.2935 102.428 71.5962C100.31 70.4218 97.6198 69.1159 97.1934 68.7734C97.6849 69.3353 101.144 73.2491 102.474 73.5428C103.643 73.8006 106.297 74.5264 107.237 74.7855Z" fill="#EFA26F"/>
<path d="M80.1274 89.7739V78.4932C80.1274 78.4932 82.807 82.976 83.0121 85.4343C83.2172 87.8925 81.8988 91.8728 80.1274 89.7739Z" fill="#EFA26F"/>
<path d="M70.4044 48.38C70.0125 47.7082 69.3107 46.4901 69.0698 45.8085C69.0015 45.6158 69.01 45.2304 69.2469 44.8196C69.3888 44.5736 69.6121 44.3177 69.95 44.0899C70.1089 43.9824 70.2697 43.8874 70.4435 43.8236C70.6466 43.75 70.8582 43.7097 71.075 43.7071C71.2709 43.7051 71.4747 43.819 71.6147 44.0208C71.6153 44.0215 71.616 44.0228 71.6166 44.0234C72.0821 44.7012 72.6706 45.6236 73.0703 46.4589C73.3476 47.0357 73.2598 47.7017 72.8561 47.9946L72.668 48.1326L71.7032 48.837C71.3015 49.1287 70.7234 48.9295 70.4044 48.38Z" fill="#FFD3B6"/>
<path d="M70.4044 48.3802C70.0125 47.7084 69.3107 46.4903 69.0698 45.8087C69.0015 45.616 69.01 45.2306 69.2469 44.8198C69.3101 44.7677 69.3778 44.7176 69.4507 44.6675C69.6095 44.5601 69.7703 44.465 69.9442 44.4012C70.1473 44.3277 70.3589 44.2879 70.5756 44.2847C70.7716 44.2827 70.9754 44.3967 71.1153 44.5985C71.116 44.5991 71.1166 44.6004 71.1173 44.6011C71.5828 45.2788 72.1713 46.2013 72.571 47.0365C72.7487 47.4063 72.7767 47.8119 72.6673 48.1322L71.7025 48.8366C71.3015 49.1289 70.7234 48.9297 70.4044 48.3802Z" fill="#FFC197"/>
<path d="M99.7063 110.132L90.7594 114.764H84.8033C83.3671 113.801 75.9085 108.714 72.822 104.921C72.1684 104.117 69.776 97.1902 67.9375 91.5661V91.5635C68.1816 92.3102 73.3123 103.237 74.7731 104.48C76.234 105.721 83.9042 112.953 86.0226 112.88C88.0746 112.809 98.9986 110.295 99.6757 110.139C99.6861 110.138 99.6958 110.135 99.7063 110.132Z" fill="#EFA26F"/>
<path d="M117.708 114.764H85.4526C87.0704 114.129 93.2596 111.765 99.6753 110.139C99.6857 110.137 99.6955 110.135 99.7059 110.132C105.216 108.738 110.888 107.893 113.969 109.161L113.991 109.194L117.708 114.764Z" fill="white"/>
<path d="M65.744 72.1603C65.7446 72.1603 65.7453 72.1603 65.7459 72.1597C66.2895 71.9604 67.0525 71.8289 67.4236 72.4487C68.0017 73.4135 65.8546 81.9261 65.5864 82.9971L65.744 72.1603Z" fill="#EFA26F"/>
<path d="M65.9098 67.5826L65.7256 72.7315C65.7256 72.7315 66.8082 72.9079 67.4241 72.4483C68.0393 71.9887 67.7131 67.5221 65.9098 67.5826Z" fill="#FFC197"/>
<path d="M43.4381 97.399C40.3387 98.0343 33.6586 95.5996 33.6586 95.5996L34.736 85.1925L27.1875 93.8379C23.3459 92.4083 17.3377 88.678 13.7676 86.3565C22.9156 85.3591 29.7454 76.3315 29.7454 76.3315C36.0869 79.7663 43.2448 81.7727 43.2448 81.7727C43.2422 87.958 43.4381 97.399 43.4381 97.399Z" fill="#F2F7FF"/>
<path d="M22.17 87.9465C22.1765 87.2525 22.7442 86.6952 23.4381 86.7017C24.1321 86.7082 24.6894 87.2759 24.6829 87.9699C24.6764 88.6639 24.1087 89.2211 23.4147 89.2146C22.7207 89.2081 22.1635 88.6404 22.17 87.9465Z" fill="#F99746"/>
</g>
</svg>
