<svg width="1017" height="719" viewBox="0 0 1017 719" fill="none" xmlns="http://www.w3.org/2000/svg">
<circle cx="18" cy="18" r="17.5" fill="white" stroke="#EBEBEB"/>
<path d="M28.8843 19.7133L26.925 12.6638C26.3507 10.5986 25.1025 8.7846 23.3789 7.51019C21.6553 6.23578 19.5552 5.57408 17.4124 5.63026C15.2695 5.68644 13.207 6.45728 11.5525 7.82026C9.89807 9.18323 8.7467 11.0601 8.2814 13.1526L6.76446 19.9742C6.59691 20.7279 6.60078 21.5097 6.7758 22.2618C6.95082 23.0138 7.29252 23.717 7.77567 24.3193C8.25882 24.9216 8.87108 25.4077 9.56725 25.7418C10.2634 26.0758 11.0257 26.2492 11.7979 26.2492H12.9467C13.1834 27.4148 13.8157 28.4627 14.7366 29.2154C15.6575 29.9681 16.8103 30.3793 17.9997 30.3793C19.1891 30.3793 20.3419 29.9681 21.2628 29.2154C22.1837 28.4627 22.816 27.4148 23.0527 26.2492H23.9169C24.7118 26.2492 25.4959 26.0655 26.208 25.7124C26.9201 25.3592 27.541 24.8462 28.022 24.2134C28.5031 23.5806 28.8313 22.8451 28.981 22.0645C29.1308 21.2838 29.098 20.4791 28.8853 19.7133H28.8843ZM17.9997 28.3116C17.3621 28.309 16.7409 28.1094 16.2211 27.7402C15.7013 27.3711 15.3083 26.8503 15.0958 26.2492H20.9036C20.6911 26.8503 20.2981 27.3711 19.7783 27.7402C19.2584 28.1094 18.6373 28.309 17.9997 28.3116ZM26.3795 22.9647C26.0921 23.3459 25.7198 23.6549 25.2921 23.867C24.8645 24.0791 24.3932 24.1886 23.9158 24.1867H11.7979C11.3346 24.1866 10.8773 24.0825 10.4597 23.8821C10.0421 23.6816 9.6748 23.3899 9.38498 23.0285C9.09516 22.6672 8.8902 22.2453 8.78522 21.7941C8.68024 21.3429 8.67793 20.8739 8.77845 20.4217L10.2944 13.5991C10.6598 11.9555 11.5641 10.4813 12.8636 9.41072C14.1631 8.34015 15.7832 7.73469 17.4663 7.6906C19.1494 7.6465 20.799 8.16631 22.1528 9.16737C23.5065 10.1684 24.4868 11.5933 24.9378 13.2155L26.8971 20.265C27.0266 20.7242 27.0472 21.2074 26.9574 21.676C26.8675 22.1447 26.6696 22.5859 26.3795 22.9647Z" fill="#444444"/>
<circle cx="24.8749" cy="12.4999" r="5.49988" fill="#FF725E"/>
<rect x="996.091" y="699.909" width="20.9091" height="18.1818" fill="#444444"/>
</svg>
