<svg width="240" height="43" viewBox="0 0 240 43" fill="none" xmlns="http://www.w3.org/2000/svg">
<rect y="7.37109" width="38.0038" height="35.6286" rx="6" fill="white"/>
<rect x="0.25" y="7.62109" width="37.5038" height="35.1286" rx="5.75" stroke="#579540" stroke-opacity="0.4" stroke-width="0.5"/>
<path d="M15.6941 15.1742L14.5786 16.1076L13.2035 16.6768C11.5051 17.3871 11.159 17.5966 10.7173 18.1748C10.6035 18.3251 10.4305 18.6165 10.3349 18.8169C10.0025 19.5272 10.0207 18.9671 10.0207 27.878V35.8736L10.1345 35.9828L10.2438 36.0967H11.842H13.4402L13.5495 35.9828C13.6497 35.8872 13.6633 35.8326 13.6633 35.5366V35.1997L14.2234 35.3681C15.216 35.6732 16.2769 35.8781 17.5792 36.0147C18.4215 36.1012 20.7483 36.0876 21.618 35.992C22.8747 35.8508 24.1451 35.5913 24.992 35.3044L25.3198 35.1906V35.5321C25.3198 35.8326 25.3335 35.8872 25.4336 35.9828L25.5429 36.0967H27.1411H28.7394L28.8532 35.9828L28.9625 35.8736L28.9488 27.7322C28.9351 18.6894 28.9625 19.4771 28.6301 18.7804C28.3523 18.2022 27.9471 17.7423 27.4143 17.4053C27.3005 17.3325 26.5856 17.0137 25.8207 16.695L24.4319 16.1122L23.3027 15.1788L22.1735 14.2408H19.4961H16.8142L15.6941 15.1742ZM20.3203 15.798L19.4916 16.6313L18.6629 15.798L17.8296 14.9693H19.4916H21.1535L20.3203 15.798ZM18.9315 17.246C18.8996 17.2869 18.5991 17.6512 18.2622 18.0565L17.6475 18.7941L16.4773 17.6239C15.8307 16.9773 15.3207 16.4355 15.339 16.4218C15.3572 16.4036 15.7169 16.0985 16.1449 15.7479L16.919 15.1059L17.9526 16.1395C18.8359 17.0229 18.9771 17.1822 18.9315 17.246ZM22.9248 15.8071L23.6852 16.4446L22.5104 17.6193C21.5907 18.5391 21.3266 18.7804 21.2856 18.7349C21.2537 18.7076 20.9486 18.3433 20.6071 17.9335L19.9879 17.1868L21.0215 16.1486C21.6498 15.5203 22.0779 15.1241 22.1097 15.1423C22.1416 15.1605 22.5059 15.4611 22.9248 15.8071ZM16.0994 18.2932C17.347 19.5363 17.5291 19.7048 17.6566 19.7048C17.8387 19.7048 17.8752 19.6729 18.5399 18.8669L19.1045 18.1839L19.1182 26.7624C19.1228 31.4796 19.1182 35.3454 19.1045 35.359C19.0727 35.3909 17.5519 35.2816 16.969 35.2042C15.8717 35.0631 14.6605 34.7808 13.9229 34.4985L13.6633 34.3983V28.0737V21.7492L13.5495 21.6399C13.4812 21.5671 13.3856 21.5261 13.2991 21.5261C13.2126 21.5261 13.1169 21.5671 13.0486 21.6399L12.9348 21.7492V27.8324V33.9111H11.842H10.7492V26.9081C10.7492 19.2176 10.7356 19.6319 11.027 19.0445C11.1909 18.7076 11.4869 18.3615 11.801 18.1293C11.9968 17.9836 14.4966 16.8908 14.6423 16.8817C14.6651 16.8817 15.3207 17.5146 16.0994 18.2932ZM25.5839 17.3871C26.2532 17.6649 26.8907 17.9426 27.0045 18.0064C27.3233 18.1885 27.7786 18.6848 27.9471 19.0309C28.2476 19.641 28.2339 19.1993 28.2339 26.9081V33.9111H27.1411H26.0483V27.8324V21.7492L25.9345 21.6399C25.8662 21.5671 25.7706 21.5261 25.6841 21.5261C25.5976 21.5261 25.5019 21.5671 25.4336 21.6399L25.3198 21.7492V28.0783V34.4074L25.0603 34.503C24.309 34.7853 23.0932 35.0676 22.0414 35.2042C21.4404 35.2816 19.9105 35.3909 19.8786 35.359C19.8649 35.3454 19.8604 31.4796 19.8649 26.7624L19.8786 18.1885L20.4933 18.9261C21.0989 19.6592 21.2036 19.7412 21.4176 19.6865C21.4723 19.6729 22.1416 19.0354 22.9066 18.2705C23.6715 17.5055 24.3135 16.8817 24.3317 16.8817C24.3545 16.8817 24.9191 17.1094 25.5839 17.3871ZM12.9348 35.0039V35.3681H11.842H10.7492V35.0039V34.6396H11.842H12.9348V35.0039ZM28.2339 35.0039V35.3681H27.1411H26.0483V35.0039V34.6396H27.1411H28.2339V35.0039Z" fill="#579540" fill-opacity="0.9"/>
<circle cx="35.6283" cy="7.37143" r="7.37143" fill="#0A4A28"/>
<path d="M35.4589 9.30852C35.1709 9.30852 34.8722 9.27118 34.5629 9.19652C34.2536 9.12185 33.9842 9.00985 33.7549 8.86052C33.6482 8.79118 33.5762 8.71118 33.5389 8.62052C33.5016 8.52985 33.4909 8.44452 33.5069 8.36452C33.5282 8.27918 33.5682 8.20718 33.6269 8.14852C33.6909 8.08985 33.7682 8.05518 33.8589 8.04452C33.9549 8.03385 34.0589 8.05785 34.1709 8.11652C34.3896 8.23385 34.6002 8.31918 34.8029 8.37252C35.0056 8.42052 35.2136 8.44452 35.4269 8.44452C35.6616 8.44452 35.8589 8.41252 36.0189 8.34852C36.1789 8.28452 36.2989 8.18852 36.3789 8.06052C36.4642 7.93252 36.5069 7.77785 36.5069 7.59652C36.5069 7.32985 36.4162 7.13252 36.2349 7.00452C36.0589 6.87118 35.8002 6.80452 35.4589 6.80452H34.9469C34.7976 6.80452 34.6829 6.76718 34.6029 6.69252C34.5282 6.61785 34.4909 6.51385 34.4909 6.38052C34.4909 6.24718 34.5282 6.14318 34.6029 6.06852C34.6829 5.99385 34.7976 5.95652 34.9469 5.95652H35.3629C35.5656 5.95652 35.7389 5.92452 35.8829 5.86052C36.0269 5.79118 36.1389 5.69518 36.2189 5.57252C36.2989 5.44985 36.3389 5.30052 36.3389 5.12452C36.3389 4.87918 36.2562 4.69252 36.0909 4.56452C35.9309 4.43652 35.6962 4.37252 35.3869 4.37252C35.1896 4.37252 35.0029 4.39652 34.8269 4.44452C34.6562 4.48718 34.4669 4.56985 34.2589 4.69252C34.1629 4.75118 34.0696 4.77518 33.9789 4.76452C33.8936 4.75385 33.8216 4.71918 33.7629 4.66052C33.7042 4.60185 33.6642 4.53252 33.6429 4.45252C33.6216 4.36718 33.6269 4.28185 33.6589 4.19652C33.6909 4.10585 33.7576 4.02852 33.8589 3.96452C34.0882 3.81518 34.3416 3.70318 34.6189 3.62852C34.8962 3.54852 35.1816 3.50852 35.4749 3.50852C35.8642 3.50852 36.1976 3.56985 36.4749 3.69252C36.7522 3.80985 36.9629 3.98052 37.1069 4.20452C37.2562 4.42318 37.3309 4.68985 37.3309 5.00452C37.3309 5.22852 37.2882 5.43385 37.2029 5.62052C37.1176 5.80185 36.9976 5.95652 36.8429 6.08452C36.6882 6.21252 36.5016 6.30318 36.2829 6.35652V6.26052C36.6669 6.32452 36.9656 6.48452 37.1789 6.74052C37.3922 6.99118 37.4989 7.30585 37.4989 7.68452C37.4989 8.01518 37.4162 8.30318 37.2509 8.54852C37.0856 8.79385 36.8509 8.98318 36.5469 9.11652C36.2429 9.24452 35.8802 9.30852 35.4589 9.30852Z" fill="white"/>
<rect x="49" y="7.37109" width="38.0038" height="35.6286" rx="6" fill="white"/>
<rect x="49.25" y="7.62109" width="37.5038" height="35.1286" rx="5.75" stroke="#579540" stroke-opacity="0.4" stroke-width="0.5"/>
<path d="M63.3901 14.5431C63.3238 14.6139 63.3149 14.7422 63.3149 15.4191C63.3149 15.8571 63.2972 16.3703 63.2707 16.565C63.0849 18.0604 62.7575 21.5644 62.607 23.5996C62.4124 26.2984 62.315 28.4795 62.2443 31.634C62.1823 34.47 62.1779 34.4036 62.523 34.6956L62.6955 34.8461V35.5141C62.6955 36.0627 62.7088 36.191 62.7663 36.2485C62.8238 36.3105 62.9964 36.3193 63.9786 36.3193C65.1112 36.3193 65.1245 36.3193 65.1908 36.222C65.2483 36.1424 65.2616 35.9875 65.2616 35.4699C65.2616 34.8638 65.266 34.8195 65.3501 34.793C65.4961 34.7443 65.6996 34.4567 65.7483 34.2222C65.7748 34.0984 65.9651 32.6516 66.1686 31.0102C66.7437 26.4665 66.6951 26.6833 67.925 22.5377L68.0135 22.228L68.4957 23.9314C69.2523 26.6036 69.2611 26.6567 69.8407 31.2535C70.2566 34.5585 70.2566 34.5452 70.5752 34.7576L70.7477 34.8726V35.523C70.7477 36.0981 70.7566 36.1822 70.8273 36.2441C70.8981 36.3105 71.0486 36.3193 72.0396 36.3193C73.0749 36.3193 73.1722 36.3149 73.2386 36.2397C73.3005 36.1689 73.3138 36.0495 73.3138 35.4964V34.8372L73.4731 34.7089C73.5615 34.6381 73.6766 34.4921 73.7252 34.3771C73.8137 34.178 73.8137 34.1293 73.7828 31.8552C73.7164 26.5152 73.4996 22.7678 72.9156 16.8791C72.8669 16.3968 72.8271 15.6845 72.8271 15.2996C72.8271 14.7245 72.8138 14.5917 72.7563 14.5342C72.6944 14.4723 72.2077 14.4634 68.0754 14.4634C63.66 14.4634 63.4565 14.4679 63.3901 14.5431ZM72.2962 15.4589V15.9234H69.531C66.8234 15.9234 66.7659 15.9234 66.6774 16.0119C66.5712 16.1181 66.5668 16.2243 66.6597 16.357C66.7216 16.4499 66.757 16.4544 67.257 16.4544H67.7834V18.1223C67.7834 20.007 67.7746 19.9495 68.1108 19.9495C68.4913 19.9495 68.9249 19.6443 69.124 19.2461C69.2169 19.0514 69.2213 18.9806 69.2346 17.7462L69.2523 16.4544H69.885H70.5176L70.5353 16.9499C70.553 17.4896 70.6415 17.7684 70.907 18.1135C71.1946 18.4939 71.7432 18.755 72.2475 18.755H72.5528L72.5794 18.9629C72.6634 19.631 72.8404 21.9183 72.9554 23.7544C73.1412 26.6479 73.212 28.6255 73.2518 31.8331L73.2828 34.1426L73.1678 34.2576L73.0527 34.3727H71.9865C71.0043 34.3727 70.9202 34.3682 70.8406 34.2886C70.7389 34.1868 70.7787 34.4567 70.3274 30.8775C69.7788 26.5373 69.7832 26.5594 68.9338 23.5332C68.6241 22.4271 68.3453 21.4361 68.3188 21.3343C68.2922 21.2326 68.2391 21.1175 68.1993 21.0777C68.1153 20.9981 67.9604 20.9892 67.8587 21.0644C67.7657 21.1352 66.5668 25.1923 66.3456 26.1833C66.1288 27.1522 66.0624 27.6212 65.62 31.1208C65.2528 34.0143 65.2218 34.2178 65.1289 34.293C65.0404 34.3638 64.9254 34.3727 63.9786 34.3727H62.9212L62.8238 34.2532L62.7265 34.1293L62.7575 32.3817C62.8194 28.7848 63.0052 24.9091 63.2707 21.9183C63.399 20.4406 63.5406 18.9408 63.5583 18.8612C63.576 18.7771 63.6158 18.7638 63.9476 18.7461C64.9652 18.693 65.6155 17.9409 65.6155 16.8216V16.4544H65.7394C65.996 16.4544 66.1199 16.2331 65.9651 16.0429L65.8766 15.9234H64.859H63.8458V15.4589V14.9943H68.071H72.2962V15.4589ZM65.0758 16.8835C65.0625 17.1932 65.0315 17.3746 64.9696 17.5162C64.7794 17.9409 64.3369 18.2241 63.8724 18.2241H63.6114L63.6379 18.0559C63.6512 17.9675 63.6954 17.5693 63.7397 17.1711L63.8149 16.4544H64.4564H65.0935L65.0758 16.8835ZM68.6683 17.7241C68.6683 18.8877 68.6594 19.0072 68.5842 19.1222C68.54 19.1886 68.4604 19.277 68.4073 19.3124L68.3144 19.3788V17.9188V16.4544H68.4913H68.6683V17.7241ZM72.3581 16.6402C72.3714 16.7464 72.4024 17.0693 72.4289 17.3613C72.4555 17.6533 72.4864 17.9675 72.4997 18.0648L72.5263 18.2329L72.221 18.2152C71.8316 18.1931 71.5352 18.0471 71.3184 17.7595C71.1105 17.4896 71.0574 17.3038 71.0574 16.8348V16.4544H71.6945H72.3316L72.3581 16.6402ZM64.7307 35.346V35.7884H63.9786H63.2264V35.346V34.9036H63.9786H64.7307V35.346ZM72.7829 35.346V35.7884H72.0307H71.2786V35.346V34.9036H72.0307H72.7829V35.346Z" fill="#579540"/>
<circle cx="84.6292" cy="7.37143" r="7.37143" fill="#0A4A28"/>
<path d="M84.4599 9.30852C84.1719 9.30852 83.8732 9.27118 83.5639 9.19652C83.2545 9.12185 82.9852 9.00985 82.7559 8.86052C82.6492 8.79118 82.5772 8.71118 82.5399 8.62052C82.5025 8.52985 82.4919 8.44452 82.5079 8.36452C82.5292 8.27918 82.5692 8.20718 82.6279 8.14852C82.6919 8.08985 82.7692 8.05518 82.8599 8.04452C82.9559 8.03385 83.0599 8.05785 83.1719 8.11652C83.3905 8.23385 83.6012 8.31918 83.8039 8.37252C84.0065 8.42052 84.2145 8.44452 84.4279 8.44452C84.6625 8.44452 84.8599 8.41252 85.0199 8.34852C85.1799 8.28452 85.2999 8.18852 85.3799 8.06052C85.4652 7.93252 85.5079 7.77785 85.5079 7.59652C85.5079 7.32985 85.4172 7.13252 85.2359 7.00452C85.0599 6.87118 84.8012 6.80452 84.4599 6.80452H83.9479C83.7985 6.80452 83.6839 6.76718 83.6039 6.69252C83.5292 6.61785 83.4919 6.51385 83.4919 6.38052C83.4919 6.24718 83.5292 6.14318 83.6039 6.06852C83.6839 5.99385 83.7985 5.95652 83.9479 5.95652H84.3639C84.5665 5.95652 84.7399 5.92452 84.8839 5.86052C85.0279 5.79118 85.1399 5.69518 85.2199 5.57252C85.2999 5.44985 85.3399 5.30052 85.3399 5.12452C85.3399 4.87918 85.2572 4.69252 85.0919 4.56452C84.9319 4.43652 84.6972 4.37252 84.3879 4.37252C84.1905 4.37252 84.0039 4.39652 83.8279 4.44452C83.6572 4.48718 83.4679 4.56985 83.2599 4.69252C83.1639 4.75118 83.0705 4.77518 82.9799 4.76452C82.8945 4.75385 82.8225 4.71918 82.7639 4.66052C82.7052 4.60185 82.6652 4.53252 82.6439 4.45252C82.6225 4.36718 82.6279 4.28185 82.6599 4.19652C82.6919 4.10585 82.7585 4.02852 82.8599 3.96452C83.0892 3.81518 83.3425 3.70318 83.6199 3.62852C83.8972 3.54852 84.1825 3.50852 84.4759 3.50852C84.8652 3.50852 85.1985 3.56985 85.4759 3.69252C85.7532 3.80985 85.9639 3.98052 86.1079 4.20452C86.2572 4.42318 86.3319 4.68985 86.3319 5.00452C86.3319 5.22852 86.2892 5.43385 86.2039 5.62052C86.1185 5.80185 85.9985 5.95652 85.8439 6.08452C85.6892 6.21252 85.5025 6.30318 85.2839 6.35652V6.26052C85.6679 6.32452 85.9665 6.48452 86.1799 6.74052C86.3932 6.99118 86.4999 7.30585 86.4999 7.68452C86.4999 8.01518 86.4172 8.30318 86.2519 8.54852C86.0865 8.79385 85.8519 8.98318 85.5479 9.11652C85.2439 9.24452 84.8812 9.30852 84.4599 9.30852Z" fill="white"/>
<rect x="98.001" y="7.37109" width="38.0038" height="35.6286" rx="6" fill="white"/>
<rect x="98.251" y="7.62109" width="37.5038" height="35.1286" rx="5.75" stroke="#579540" stroke-opacity="0.4" stroke-width="0.5"/>
<path d="M112.083 15.5086C110.78 15.9958 109.605 16.4487 109.476 16.5171C109.13 16.6923 108.75 17.0939 108.571 17.4785C108.37 17.9015 106.314 24.0889 106.314 24.2726C106.314 24.6572 106.635 25.1144 106.977 25.2084C107.067 25.2297 107.951 25.3152 108.947 25.3879L110.758 25.5289V30.383C110.758 34.6261 110.767 35.2457 110.822 35.3269C110.955 35.5149 112.66 36.002 113.933 36.2114C115.177 36.4208 115.805 36.4678 117.275 36.4678C118.745 36.4678 119.437 36.4122 120.629 36.2114C121.868 36.002 123.556 35.5106 123.684 35.3269C123.74 35.2457 123.748 34.656 123.748 30.383V25.5331L125.556 25.3921C126.547 25.3152 127.436 25.234 127.53 25.2084C127.872 25.1144 128.192 24.6614 128.192 24.2683C128.192 24.1914 127.701 22.6531 127.103 20.8542C126.299 18.4485 125.97 17.5127 125.851 17.3119C125.658 16.9871 125.317 16.6624 124.992 16.5C124.859 16.4316 123.693 15.9829 122.398 15.4958L120.048 14.6156H117.249H114.455L112.083 15.5086ZM119.604 15.3847C119.604 15.5086 119.42 15.9872 119.287 16.218C119.005 16.7008 118.377 17.1495 117.805 17.2862C117.014 17.47 116.164 17.2349 115.587 16.6624C115.305 16.3846 115.147 16.1325 115.001 15.7394C114.822 15.248 114.557 15.2993 117.253 15.2993C119.557 15.2993 119.604 15.2993 119.604 15.3847ZM114.279 15.7266C114.318 15.8804 114.429 16.1667 114.527 16.3675C114.672 16.6581 114.784 16.8034 115.074 17.0939C115.484 17.5041 115.835 17.7263 116.335 17.893C116.638 17.9955 116.741 18.0084 117.253 18.0084C117.766 18.0084 117.869 17.9955 118.172 17.893C118.672 17.7263 119.022 17.5041 119.433 17.0939C119.723 16.8034 119.834 16.6581 119.98 16.3675C120.078 16.1667 120.189 15.8761 120.227 15.7223L120.296 15.4403L120.603 15.5556C120.779 15.624 120.911 15.7009 120.92 15.7394C120.945 15.8633 120.68 16.5427 120.471 16.8888C119.514 18.4912 117.48 19.1493 115.771 18.41C114.813 17.9913 114.04 17.158 113.698 16.1752C113.63 15.9744 113.579 15.7778 113.587 15.7394C113.596 15.7009 113.724 15.624 113.899 15.5556C114.066 15.4916 114.202 15.4445 114.202 15.4445C114.207 15.4488 114.241 15.5727 114.279 15.7266ZM113.015 16.2735C113.425 17.6281 114.484 18.7091 115.848 19.1621C116.429 19.3544 116.89 19.4185 117.484 19.3885C118.296 19.3458 119.039 19.1022 119.706 18.6579C120.548 18.0981 121.193 17.2392 121.488 16.2821C121.543 16.1069 121.59 15.953 121.595 15.9488C121.616 15.9189 124.629 17.0683 124.774 17.158C124.966 17.2777 125.218 17.5597 125.321 17.7648C125.368 17.8545 125.881 19.3544 126.462 21.102C127.197 23.3069 127.509 24.3068 127.492 24.3794C127.479 24.435 127.427 24.5033 127.385 24.529C127.312 24.5632 124.244 24.8281 123.877 24.8281H123.748V23.5889V22.3455L123.642 22.2429C123.505 22.1019 123.308 22.1019 123.171 22.2429L123.065 22.3455V28.6225V34.8996L122.629 35.032C121.569 35.3568 120.501 35.5704 119.253 35.7115C118.339 35.814 116.168 35.814 115.254 35.7115C114.014 35.5704 113.044 35.3782 111.968 35.0577L111.442 34.8996V28.6225V22.3455L111.331 22.2344C111.241 22.1446 111.194 22.1318 111.066 22.1532C110.758 22.2002 110.758 22.2087 110.758 23.5932V24.8281H110.643C110.284 24.8281 107.19 24.5632 107.122 24.529C107.079 24.5033 107.028 24.435 107.015 24.3794C106.998 24.3068 107.31 23.3069 108.045 21.102C108.626 19.3544 109.139 17.8545 109.186 17.7648C109.301 17.5341 109.588 17.2307 109.797 17.1238C109.968 17.0341 112.792 15.953 112.874 15.9445C112.899 15.9445 112.963 16.0898 113.015 16.2735Z" fill="#579540"/>
<circle cx="133.63" cy="7.37143" r="7.37143" fill="#0A4A28"/>
<path d="M133.461 9.30852C133.173 9.30852 132.874 9.27118 132.565 9.19652C132.256 9.12185 131.986 9.00985 131.757 8.86052C131.65 8.79118 131.578 8.71118 131.541 8.62052C131.504 8.52985 131.493 8.44452 131.509 8.36452C131.53 8.27918 131.57 8.20718 131.629 8.14852C131.693 8.08985 131.77 8.05518 131.861 8.04452C131.957 8.03385 132.061 8.05785 132.173 8.11652C132.392 8.23385 132.602 8.31918 132.805 8.37252C133.008 8.42052 133.216 8.44452 133.429 8.44452C133.664 8.44452 133.861 8.41252 134.021 8.34852C134.181 8.28452 134.301 8.18852 134.381 8.06052C134.466 7.93252 134.509 7.77785 134.509 7.59652C134.509 7.32985 134.418 7.13252 134.237 7.00452C134.061 6.87118 133.802 6.80452 133.461 6.80452H132.949C132.8 6.80452 132.685 6.76718 132.605 6.69252C132.53 6.61785 132.493 6.51385 132.493 6.38052C132.493 6.24718 132.53 6.14318 132.605 6.06852C132.685 5.99385 132.8 5.95652 132.949 5.95652H133.365C133.568 5.95652 133.741 5.92452 133.885 5.86052C134.029 5.79118 134.141 5.69518 134.221 5.57252C134.301 5.44985 134.341 5.30052 134.341 5.12452C134.341 4.87918 134.258 4.69252 134.093 4.56452C133.933 4.43652 133.698 4.37252 133.389 4.37252C133.192 4.37252 133.005 4.39652 132.829 4.44452C132.658 4.48718 132.469 4.56985 132.261 4.69252C132.165 4.75118 132.072 4.77518 131.981 4.76452C131.896 4.75385 131.824 4.71918 131.765 4.66052C131.706 4.60185 131.666 4.53252 131.645 4.45252C131.624 4.36718 131.629 4.28185 131.661 4.19652C131.693 4.10585 131.76 4.02852 131.861 3.96452C132.09 3.81518 132.344 3.70318 132.621 3.62852C132.898 3.54852 133.184 3.50852 133.477 3.50852C133.866 3.50852 134.2 3.56985 134.477 3.69252C134.754 3.80985 134.965 3.98052 135.109 4.20452C135.258 4.42318 135.333 4.68985 135.333 5.00452C135.333 5.22852 135.29 5.43385 135.205 5.62052C135.12 5.80185 135 5.95652 134.845 6.08452C134.69 6.21252 134.504 6.30318 134.285 6.35652V6.26052C134.669 6.32452 134.968 6.48452 135.181 6.74052C135.394 6.99118 135.501 7.30585 135.501 7.68452C135.501 8.01518 135.418 8.30318 135.253 8.54852C135.088 8.79385 134.853 8.98318 134.549 9.11652C134.245 9.24452 133.882 9.30852 133.461 9.30852Z" fill="white"/>
<rect x="147.002" y="7.37109" width="38.0038" height="35.6286" rx="6" fill="white"/>
<rect x="147.252" y="7.62109" width="37.5038" height="35.1286" rx="5.75" stroke="#579540" stroke-opacity="0.4" stroke-width="0.5"/>
<path d="M159.116 18.5365C159.077 18.5541 159.015 18.6033 158.976 18.6455C158.914 18.7158 158.907 18.7862 158.889 19.5034L158.868 20.2804L158.753 20.5616C158.474 21.2402 158.14 22.3195 157.882 23.3742C157.499 24.9458 157.29 26.4329 157.164 28.5248C157.136 29.017 157.088 29.7518 157.056 30.1526C156.997 30.9542 157 30.9859 157.192 31.1054C157.297 31.1722 164.97 32.5785 165.081 32.5504C165.287 32.5011 165.304 32.4554 165.614 31.0316C165.778 30.2897 165.918 29.685 165.928 29.685C165.938 29.685 166.078 30.2897 166.242 31.0316C166.552 32.4554 166.569 32.5011 166.775 32.5504C166.886 32.5785 174.559 31.1722 174.664 31.1054C174.845 30.9894 174.859 30.9226 174.817 30.4163C174.796 30.1596 174.754 29.5198 174.727 28.9994C174.615 26.9498 174.514 25.9689 174.27 24.6223C174.019 23.2441 173.517 21.4652 173.103 20.4737C173.026 20.2979 173.019 20.2136 173.002 19.4963L172.984 18.7088L172.869 18.6069L172.758 18.5049L165.97 18.5084C162.238 18.5084 159.154 18.5225 159.116 18.5365ZM164.883 19.5596V19.9112H162.234H159.586V19.5596V19.2081H162.234H164.883V19.5596ZM166.276 19.5596V19.9112H165.928H165.58V19.5596V19.2081H165.928H166.276V19.5596ZM172.305 19.5596V19.9112H169.639H166.973V19.5596V19.2081H169.639H172.305V19.5596ZM165.44 20.6249C165.44 20.6284 165.158 21.4863 164.813 22.5304C164.329 23.993 164.189 24.4536 164.203 24.5415C164.231 24.7067 164.409 24.8473 164.562 24.8192C164.799 24.7805 164.809 24.7524 165.377 23.0367C165.67 22.1472 165.918 21.423 165.928 21.423C165.938 21.423 166.186 22.1472 166.479 23.0367C167.047 24.7524 167.057 24.7805 167.294 24.8192C167.447 24.8473 167.625 24.7067 167.653 24.5415C167.667 24.4536 167.527 23.993 167.043 22.5304C166.698 21.4863 166.416 20.6284 166.416 20.6249C166.416 20.6179 167.768 20.6179 169.416 20.6214L172.42 20.6319L172.521 20.8956C173.319 22.9699 173.814 25.4134 173.977 28.0853C174.082 29.8186 174.12 30.5042 174.11 30.5147C174.085 30.5358 167.148 31.805 167.13 31.791C167.123 31.7804 166.928 30.912 166.695 29.8608C166.465 28.8061 166.259 27.899 166.235 27.8463C166.134 27.5931 165.761 27.5861 165.635 27.8357C165.604 27.8955 165.391 28.8061 165.158 29.8608C164.928 30.912 164.733 31.7804 164.726 31.791C164.708 31.805 157.771 30.5358 157.746 30.5147C157.736 30.5007 157.753 30.1843 157.879 28.2436C158.025 26.0111 158.346 24.1231 158.889 22.3265C159.046 21.7957 159.412 20.7339 159.464 20.646C159.482 20.6179 165.44 20.5968 165.44 20.6249Z" fill="#579540"/>
<circle cx="182.63" cy="7.37143" r="7.37143" fill="#0A4A28"/>
<path d="M182.461 9.30852C182.173 9.30852 181.874 9.27118 181.565 9.19652C181.256 9.12185 180.986 9.00985 180.757 8.86052C180.65 8.79118 180.578 8.71118 180.541 8.62052C180.504 8.52985 180.493 8.44452 180.509 8.36452C180.53 8.27918 180.57 8.20718 180.629 8.14852C180.693 8.08985 180.77 8.05518 180.861 8.04452C180.957 8.03385 181.061 8.05785 181.173 8.11652C181.392 8.23385 181.602 8.31918 181.805 8.37252C182.008 8.42052 182.216 8.44452 182.429 8.44452C182.664 8.44452 182.861 8.41252 183.021 8.34852C183.181 8.28452 183.301 8.18852 183.381 8.06052C183.466 7.93252 183.509 7.77785 183.509 7.59652C183.509 7.32985 183.418 7.13252 183.237 7.00452C183.061 6.87118 182.802 6.80452 182.461 6.80452H181.949C181.8 6.80452 181.685 6.76718 181.605 6.69252C181.53 6.61785 181.493 6.51385 181.493 6.38052C181.493 6.24718 181.53 6.14318 181.605 6.06852C181.685 5.99385 181.8 5.95652 181.949 5.95652H182.365C182.568 5.95652 182.741 5.92452 182.885 5.86052C183.029 5.79118 183.141 5.69518 183.221 5.57252C183.301 5.44985 183.341 5.30052 183.341 5.12452C183.341 4.87918 183.258 4.69252 183.093 4.56452C182.933 4.43652 182.698 4.37252 182.389 4.37252C182.192 4.37252 182.005 4.39652 181.829 4.44452C181.658 4.48718 181.469 4.56985 181.261 4.69252C181.165 4.75118 181.072 4.77518 180.981 4.76452C180.896 4.75385 180.824 4.71918 180.765 4.66052C180.706 4.60185 180.666 4.53252 180.645 4.45252C180.624 4.36718 180.629 4.28185 180.661 4.19652C180.693 4.10585 180.76 4.02852 180.861 3.96452C181.09 3.81518 181.344 3.70318 181.621 3.62852C181.898 3.54852 182.184 3.50852 182.477 3.50852C182.866 3.50852 183.2 3.56985 183.477 3.69252C183.754 3.80985 183.965 3.98052 184.109 4.20452C184.258 4.42318 184.333 4.68985 184.333 5.00452C184.333 5.22852 184.29 5.43385 184.205 5.62052C184.12 5.80185 184 5.95652 183.845 6.08452C183.69 6.21252 183.504 6.30318 183.285 6.35652V6.26052C183.669 6.32452 183.968 6.48452 184.181 6.74052C184.394 6.99118 184.501 7.30585 184.501 7.68452C184.501 8.01518 184.418 8.30318 184.253 8.54852C184.088 8.79385 183.853 8.98318 183.549 9.11652C183.245 9.24452 182.882 9.30852 182.461 9.30852Z" fill="white"/>
<rect x="196.002" y="7" width="38.0038" height="35.6286" rx="6" fill="white"/>
<rect x="196.252" y="7.25" width="37.5038" height="35.1286" rx="5.75" stroke="#579540" stroke-opacity="0.4" stroke-width="0.5"/>
<path d="M213.417 15.4251C213.049 15.7027 212.458 16.2622 212.214 16.5654C212.072 16.7405 212.025 16.7619 210.654 17.2872C209.879 17.5819 209.189 17.8638 209.125 17.9065C208.838 18.1072 208.499 18.7948 208.302 19.5935C208.067 20.5245 207.985 21.3744 207.934 23.3432C207.912 24.1889 207.839 25.6281 207.775 26.5464C207.668 28.0454 207.655 28.4298 207.655 30.3688C207.655 32.4102 207.741 36.4632 207.788 36.7665C207.831 37.0398 207.857 37.0441 209.266 36.9672C210.68 36.8903 210.663 36.8946 210.706 36.5657C210.718 36.4718 210.74 36.3906 210.757 36.3906C210.77 36.3906 210.984 36.4461 211.228 36.5187C211.858 36.6981 212.719 36.886 213.255 36.9672C213.987 37.074 214.454 36.9672 214.844 36.6084C215.097 36.3735 215.191 36.1429 215.307 35.4382C215.362 35.1179 215.418 34.8531 215.431 34.8531C215.444 34.8531 215.504 35.1521 215.568 35.5151C215.697 36.2326 215.739 36.3479 215.975 36.6084C216.292 36.9544 216.768 37.0825 217.41 36.9928C217.856 36.9287 218.803 36.7152 219.591 36.5059L220.135 36.3565L220.156 36.5486C220.195 36.8946 220.173 36.8903 221.596 36.9672C223.005 37.0441 223.031 37.0398 223.074 36.7665C223.121 36.4632 223.207 32.4102 223.207 30.3688C223.207 28.4298 223.194 28.0454 223.087 26.5464C223.022 25.6281 222.95 24.1889 222.928 23.3432C222.877 21.3744 222.795 20.5245 222.56 19.5935C222.363 18.7948 222.024 18.1072 221.737 17.9065C221.673 17.8638 220.987 17.5819 220.208 17.2872C218.837 16.7619 218.79 16.7405 218.648 16.5654C218.404 16.2622 217.813 15.7027 217.444 15.4251L217.097 15.1646H215.431H213.764L213.417 15.4251ZM216.99 15.9419C217.025 16.0658 217.063 16.2708 217.076 16.3903L217.097 16.6167H215.431H213.764L213.786 16.3903C213.799 16.2708 213.837 16.0658 213.872 15.9419L213.936 15.7198H215.431H216.926L216.99 15.9419ZM213.349 18.0688C213.387 18.3165 213.46 18.7265 213.507 18.987C213.576 19.3628 214.895 25.8502 214.985 26.2688C215.028 26.4567 214.703 25.8929 214.351 25.1669C213.662 23.7447 213.036 21.951 212.479 19.7856L212.265 18.9614L212.548 18.7606C212.702 18.6496 212.903 18.5044 212.998 18.4403C213.233 18.2738 213.285 18.1414 213.173 17.9919C213.1 17.8937 213.023 17.8638 212.672 17.7912C212.265 17.71 212.256 17.7058 212.282 17.599C212.351 17.3128 212.633 16.8858 213.028 16.4758L213.225 16.2708L213.25 16.9455C213.267 17.3171 213.31 17.8211 213.349 18.0688ZM218.323 17.0865C218.485 17.3342 218.635 17.6716 218.593 17.7015C218.588 17.7058 218.4 17.7485 218.177 17.7954C217.839 17.8638 217.761 17.8979 217.689 17.9919C217.577 18.1414 217.629 18.2738 217.864 18.4403C217.959 18.5044 218.16 18.6496 218.314 18.7606L218.597 18.9614L218.383 19.7856C217.826 21.951 217.2 23.7447 216.511 25.1669C216.155 25.8972 215.834 26.4567 215.876 26.2688C216.018 25.6111 217.333 19.1194 217.397 18.7521C217.543 17.9364 217.616 17.2787 217.616 16.7534L217.62 16.2537L217.881 16.5313C218.023 16.685 218.224 16.9327 218.323 17.0865ZM217.042 17.394C216.939 18.2268 216.819 18.8845 216.365 21.1224C216.086 22.5062 215.765 24.0906 215.654 24.633C215.542 25.1797 215.444 25.6281 215.431 25.6281C215.41 25.6281 214.308 20.264 214.051 18.9229C213.944 18.3506 213.803 17.394 213.803 17.2274C213.803 17.1847 214.133 17.1719 215.435 17.1719H217.072L217.042 17.394ZM211.712 17.7442C211.691 18.0773 211.764 18.1755 212.064 18.2183C212.171 18.2353 212.261 18.261 212.261 18.278C212.256 18.2909 212.136 18.3891 211.991 18.4959C211.807 18.6325 211.721 18.7222 211.712 18.7948C211.674 19.1066 212.415 21.7417 212.98 23.3005C213.649 25.1583 214.287 26.4182 215.028 27.3365C215.23 27.5927 215.255 27.6397 215.29 27.9216C215.311 28.0924 215.324 28.2333 215.315 28.2333C215.307 28.2333 215.251 28.1992 215.187 28.1607C215.028 28.054 214.681 28.0668 214.458 28.1821C214.073 28.3828 213.936 28.9209 214.176 29.2882C214.398 29.6342 214.853 29.7538 215.225 29.5573L215.401 29.4676L215.375 30.3559C215.35 31.2443 215.268 32.2009 215.148 33.0807C215.092 33.4779 214.754 35.5108 214.677 35.8952C214.664 35.9593 214.583 36.0917 214.501 36.1814C214.334 36.365 214.047 36.476 213.739 36.476C213.49 36.476 212.693 36.3266 212.004 36.1557C211.472 36.0233 210.114 35.6304 210.084 35.6048C210.063 35.5834 210.376 33.8196 210.526 33.1021C210.766 31.9874 210.993 31.1247 211.061 31.0905C211.095 31.0734 211.601 31.0222 212.188 30.9795C213.293 30.8941 213.332 30.8855 213.392 30.6805C213.413 30.6207 213.387 30.5524 213.319 30.4755L213.22 30.3559L212.321 30.4285C211.828 30.467 211.374 30.4969 211.31 30.4969H211.194L211.271 30.3132C211.374 30.0741 211.52 29.4932 211.571 29.1089C211.738 27.913 211.631 26.2816 211.275 24.5305C211.125 23.7917 211.151 23.8856 210.311 20.6996C209.969 19.3885 209.695 18.2951 209.699 18.2738C209.716 18.2311 211.571 17.4879 211.682 17.4751C211.712 17.4709 211.721 17.5691 211.712 17.7442ZM220.165 17.851C220.705 18.0602 221.154 18.2481 221.163 18.2738C221.167 18.2951 220.893 19.3885 220.546 20.6996C219.766 23.6678 219.702 23.9155 219.544 24.7313C219.111 26.9905 219.115 29.0021 219.565 30.2321L219.664 30.4969H219.548C219.488 30.4969 219.034 30.467 218.541 30.4285L217.642 30.3559L217.543 30.4755C217.474 30.5524 217.449 30.6207 217.47 30.6805C217.53 30.8855 217.569 30.8941 218.674 30.9795C219.261 31.0222 219.762 31.0734 219.796 31.0905C219.916 31.1503 220.392 33.2003 220.658 34.8061C220.726 35.2418 220.782 35.5962 220.773 35.6005C220.752 35.6176 219.03 36.0917 218.708 36.1728C218.104 36.3223 217.26 36.476 217.025 36.476C216.669 36.476 216.391 36.3308 216.258 36.0789C216.211 35.9806 215.902 34.3278 215.744 33.3156C215.718 33.1533 215.731 32.8885 215.782 32.4615C215.966 30.8983 215.988 29.0448 215.838 27.9216L215.769 27.4176L215.958 27.1742C216.939 25.9057 217.924 23.5696 218.747 20.5672C218.982 19.7002 219.162 18.9144 219.15 18.7948C219.141 18.7222 219.055 18.6325 218.871 18.4959C218.725 18.3891 218.605 18.2909 218.601 18.278C218.601 18.261 218.691 18.2353 218.798 18.2183C219.098 18.1755 219.171 18.0773 219.15 17.7442C219.141 17.5947 219.145 17.4709 219.158 17.4709C219.171 17.4709 219.621 17.6417 220.165 17.851ZM209.643 20.2896C210.131 22.156 210.598 24.0778 210.74 24.8039L210.851 25.3633L210.701 25.8075C210.38 26.7599 210.273 27.6141 210.277 29.301C210.277 29.9929 210.299 30.7403 210.324 30.9624C210.363 31.3425 210.359 31.3895 210.226 31.9447C209.964 33.0167 209.519 35.4254 209.519 35.7543C209.519 35.9465 209.617 36.0361 209.909 36.1173C210.123 36.1771 210.161 36.2027 210.161 36.2839C210.161 36.3778 210.149 36.3821 209.51 36.4077C209.15 36.4248 208.735 36.4461 208.593 36.459L208.328 36.4846L208.302 35.7457C208.246 34.2595 208.191 31.5091 208.191 30.0912C208.191 28.9423 208.216 28.2291 208.319 26.6958C208.388 25.6281 208.465 24.0522 208.491 23.1938C208.512 22.3353 208.551 21.4598 208.576 21.2505C208.688 20.2554 208.838 19.5593 209.052 18.9998C209.163 18.7137 209.198 18.6624 209.223 18.7308C209.245 18.7777 209.433 19.4781 209.643 20.2896ZM221.81 19.0084C222.024 19.5593 222.174 20.264 222.286 21.2505C222.311 21.4598 222.35 22.3353 222.371 23.1938C222.397 24.0522 222.474 25.6281 222.543 26.6958C222.645 28.2291 222.671 28.9423 222.671 30.0912C222.671 31.5091 222.615 34.2595 222.56 35.7457L222.534 36.4846L222.268 36.459C222.127 36.4461 221.711 36.4248 221.356 36.4077C220.718 36.3821 220.7 36.3778 220.7 36.2881C220.7 36.2112 220.743 36.1771 220.949 36.1173C221.257 36.0191 221.343 35.9465 221.343 35.7671C221.343 35.4169 220.91 33.0679 220.636 31.9447C220.503 31.3895 220.499 31.3425 220.542 30.9624C220.563 30.7403 220.585 29.9844 220.585 29.2797C220.589 27.6013 220.486 26.7642 220.161 25.8161L220.015 25.3804L220.118 24.8765C220.405 23.4927 220.927 21.3231 221.364 19.7173C221.467 19.3372 221.57 18.9486 221.596 18.8461C221.626 18.7478 221.656 18.6667 221.664 18.6667C221.673 18.6667 221.737 18.8204 221.81 19.0084ZM211.087 28.1052C211.061 28.669 210.975 29.284 210.873 29.6C210.817 29.7837 210.813 29.7666 210.808 29.1302C210.804 28.2974 210.911 27.0631 211.005 26.824C211.057 26.7044 211.108 27.5671 211.087 28.1052ZM219.921 27.1742C220.015 27.8233 220.058 28.4597 220.053 29.1302C220.049 29.7666 220.045 29.7837 219.989 29.6C219.912 29.3651 219.814 28.7587 219.775 28.2889C219.745 27.8959 219.792 26.7727 219.839 26.8026C219.856 26.8112 219.895 26.9777 219.921 27.1742ZM215.011 28.6903C215.114 28.78 215.11 28.938 215.003 29.0448C214.887 29.1601 214.805 29.1516 214.677 29.0234C214.6 28.9423 214.578 28.891 214.596 28.8184C214.656 28.622 214.865 28.5579 215.011 28.6903Z" fill="#579540"/>
<circle cx="231.63" cy="7.37143" r="7.37143" fill="#0A4A28"/>
<path d="M231.461 9.30852C231.173 9.30852 230.874 9.27118 230.565 9.19652C230.256 9.12185 229.986 9.00985 229.757 8.86052C229.65 8.79118 229.578 8.71118 229.541 8.62052C229.504 8.52985 229.493 8.44452 229.509 8.36452C229.53 8.27918 229.57 8.20718 229.629 8.14852C229.693 8.08985 229.77 8.05518 229.861 8.04452C229.957 8.03385 230.061 8.05785 230.173 8.11652C230.392 8.23385 230.602 8.31918 230.805 8.37252C231.008 8.42052 231.216 8.44452 231.429 8.44452C231.664 8.44452 231.861 8.41252 232.021 8.34852C232.181 8.28452 232.301 8.18852 232.381 8.06052C232.466 7.93252 232.509 7.77785 232.509 7.59652C232.509 7.32985 232.418 7.13252 232.237 7.00452C232.061 6.87118 231.802 6.80452 231.461 6.80452H230.949C230.8 6.80452 230.685 6.76718 230.605 6.69252C230.53 6.61785 230.493 6.51385 230.493 6.38052C230.493 6.24718 230.53 6.14318 230.605 6.06852C230.685 5.99385 230.8 5.95652 230.949 5.95652H231.365C231.568 5.95652 231.741 5.92452 231.885 5.86052C232.029 5.79118 232.141 5.69518 232.221 5.57252C232.301 5.44985 232.341 5.30052 232.341 5.12452C232.341 4.87918 232.258 4.69252 232.093 4.56452C231.933 4.43652 231.698 4.37252 231.389 4.37252C231.192 4.37252 231.005 4.39652 230.829 4.44452C230.658 4.48718 230.469 4.56985 230.261 4.69252C230.165 4.75118 230.072 4.77518 229.981 4.76452C229.896 4.75385 229.824 4.71918 229.765 4.66052C229.706 4.60185 229.666 4.53252 229.645 4.45252C229.624 4.36718 229.629 4.28185 229.661 4.19652C229.693 4.10585 229.76 4.02852 229.861 3.96452C230.09 3.81518 230.344 3.70318 230.621 3.62852C230.898 3.54852 231.184 3.50852 231.477 3.50852C231.866 3.50852 232.2 3.56985 232.477 3.69252C232.754 3.80985 232.965 3.98052 233.109 4.20452C233.258 4.42318 233.333 4.68985 233.333 5.00452C233.333 5.22852 233.29 5.43385 233.205 5.62052C233.12 5.80185 233 5.95652 232.845 6.08452C232.69 6.21252 232.504 6.30318 232.285 6.35652V6.26052C232.669 6.32452 232.968 6.48452 233.181 6.74052C233.394 6.99118 233.501 7.30585 233.501 7.68452C233.501 8.01518 233.418 8.30318 233.253 8.54852C233.088 8.79385 232.853 8.98318 232.549 9.11652C232.245 9.24452 231.882 9.30852 231.461 9.30852Z" fill="white"/>
</svg>
