<svg width="22" height="22" viewBox="0 0 22 22" fill="none" xmlns="http://www.w3.org/2000/svg">
<path d="M19.6955 9.06993H18.9679V9.03245H10.8389V12.6453H15.9435C15.1988 14.7485 13.1977 16.2583 10.8389 16.2583C7.84606 16.2583 5.41954 13.8317 5.41954 10.8389C5.41954 7.84606 7.84606 5.41954 10.8389 5.41954C12.2204 5.41954 13.4772 5.9407 14.4342 6.79199L16.989 4.23722C15.3758 2.7338 13.218 1.80664 10.8389 1.80664C5.85083 1.80664 1.80664 5.85083 1.80664 10.8389C1.80664 15.827 5.85083 19.8712 10.8389 19.8712C15.827 19.8712 19.8712 15.827 19.8712 10.8389C19.8712 10.2333 19.8088 9.64212 19.6955 9.06993Z" fill="#FFC107"/>
<path d="M2.84766 6.63483L5.8152 8.81116C6.61817 6.82316 8.56282 5.41954 10.8385 5.41954C12.22 5.41954 13.4768 5.9407 14.4338 6.79199L16.9886 4.23722C15.3754 2.7338 13.2176 1.80664 10.8385 1.80664C7.3692 1.80664 4.36056 3.76529 2.84766 6.63483Z" fill="#FF3D00"/>
<path d="M10.8388 19.8709C13.1718 19.8709 15.2917 18.978 16.8945 17.5261L14.099 15.1605C13.1922 15.8474 12.0649 16.2579 10.8388 16.2579C8.48953 16.2579 6.49475 14.7599 5.74327 12.6694L2.79785 14.9388C4.29269 17.8639 7.32843 19.8709 10.8388 19.8709Z" fill="#4CAF50"/>
<path d="M19.6955 9.06971H18.9679V9.03223H10.8389V12.6451H15.9435C15.5858 13.6554 14.9359 14.5265 14.0977 15.1611C14.0982 15.1606 14.0986 15.1606 14.0991 15.1602L16.8945 17.5257C16.6967 17.7055 19.8711 15.3548 19.8711 10.8387C19.8711 10.2331 19.8088 9.6419 19.6955 9.06971Z" fill="#1976D2"/>
</svg>
