<svg width="143" height="131" viewBox="0 0 143 131" fill="none" xmlns="http://www.w3.org/2000/svg">
<path d="M108.944 0H0.00378418V131H108.944V0Z" fill="#E0E0E0"/>
<path d="M108.691 130.507C108.691 130.593 84.4122 130.666 54.4721 130.666C24.5198 130.666 0.247498 130.593 0.247498 130.507C0.247498 130.421 24.5198 130.347 54.4721 130.347C84.4122 130.347 108.691 130.415 108.691 130.507Z" fill="#263238"/>
<path d="M57.0394 114.761C78.9309 114.761 96.6774 97.0148 96.6774 75.1234C96.6774 53.232 78.9309 35.4854 57.0394 35.4854C35.148 35.4854 17.4014 53.232 17.4014 75.1234C17.4014 97.0148 35.148 114.761 57.0394 114.761Z" fill="#455A64"/>
<path d="M96.6774 75.1234C96.6774 75.1234 96.659 74.9025 96.6467 74.4793C96.6222 74.056 96.6344 73.4242 96.5608 72.5961C96.4565 70.9461 96.1805 68.5048 95.426 65.45C94.6409 62.4076 93.3343 58.7456 91.0341 54.9057C88.74 51.0842 85.4583 47.0848 80.9804 43.6743C78.7538 41.9629 76.2204 40.4294 73.4295 39.1658C70.6385 37.9022 67.5899 36.884 64.3389 36.3012C61.094 35.7062 57.6589 35.467 54.1503 35.743C52.396 35.8473 50.6294 36.1356 48.8566 36.4852C47.09 36.8656 45.3234 37.3685 43.5752 37.9942C36.607 40.5214 29.9884 45.2323 25.2162 51.7651C24.0078 53.3844 22.9527 55.1326 21.9958 56.9483C21.0389 58.7639 20.2292 60.6778 19.579 62.659C18.2479 66.6093 17.5854 70.8418 17.5609 75.1233C17.5854 79.4049 18.2479 83.6373 19.579 87.5876C20.2292 89.5689 21.0389 91.4827 21.9958 93.2984C22.9527 95.1141 24.0078 96.8623 25.2162 98.4816C29.9884 105.02 36.607 109.731 43.5752 112.259C45.3234 112.878 47.09 113.387 48.8566 113.768C50.6294 114.117 52.396 114.406 54.1503 114.51C57.6589 114.786 61.094 114.547 64.3389 113.952C67.5899 113.369 70.6385 112.351 73.4295 111.087C76.2204 109.817 78.7538 108.284 80.9804 106.579C85.4583 103.168 88.74 99.1686 91.0341 95.3472C93.3282 91.5073 94.6409 87.8453 95.4199 84.8089C96.1744 81.7542 96.4566 79.3129 96.5547 77.6628C96.6283 76.8347 96.616 76.2029 96.6406 75.7797C96.659 75.3442 96.6774 75.1234 96.6774 75.1234C96.6774 75.1234 96.7019 75.9944 96.6222 77.6506C96.5424 79.3067 96.2848 81.7542 95.5426 84.8212C94.7758 87.8759 93.4816 91.5625 91.1874 95.4208C88.8995 99.2668 85.6116 103.297 81.1154 106.738C78.8765 108.462 76.3309 110.014 73.5276 111.296C70.7244 112.578 67.6574 113.602 64.3818 114.197C61.1185 114.804 57.6589 115.05 54.1257 114.774C52.3591 114.669 50.5803 114.387 48.7953 114.031C47.0103 113.651 45.2376 113.142 43.471 112.516C36.4475 109.983 29.7676 105.235 24.9585 98.6472C23.7379 97.0156 22.6767 95.2551 21.7136 93.4211C20.7506 91.587 19.9286 89.6609 19.2784 87.6674C17.9351 83.6803 17.2665 79.4171 17.2419 75.0988C17.2665 70.7866 17.9351 66.5173 19.2784 62.5364C19.9348 60.5367 20.7506 58.6106 21.7136 56.7827C22.6767 54.9547 23.744 53.1881 24.9585 51.5626C29.7676 44.9808 36.4475 40.2331 43.471 37.6998C45.2314 37.0741 47.0103 36.565 48.7892 36.1847C50.5741 35.835 52.353 35.5467 54.1196 35.4425C57.6528 35.1726 61.1124 35.4118 64.3757 36.0191C67.6451 36.6141 70.7121 37.6446 73.5215 38.9204C76.3247 40.2025 78.8703 41.7482 81.1093 43.4719C85.5993 46.9131 88.8933 50.9431 91.1813 54.7891C93.4754 58.6535 94.7697 62.3401 95.5364 65.3948C96.2787 68.4618 96.5363 70.9093 96.616 72.5716C96.7019 74.2523 96.6774 75.1234 96.6774 75.1234Z" fill="#263238"/>
<path d="M99.0838 29.1984C100.415 29.1984 101.494 28.1191 101.494 26.7877C101.494 25.4563 100.415 24.377 99.0838 24.377C97.7524 24.377 96.6731 25.4563 96.6731 26.7877C96.6731 28.1191 97.7524 29.1984 99.0838 29.1984Z" fill="#579540"/>
<path d="M101.494 26.7877C101.464 26.7877 101.464 26.5727 101.36 26.2108C101.256 25.8611 101.01 25.3459 100.477 24.9594C99.9615 24.5668 99.1211 24.3522 98.3176 24.6589C97.514 24.941 96.827 25.7936 96.8393 26.7874C96.8331 27.7811 97.5202 28.6337 98.3176 28.9159C99.1273 29.2226 99.9676 29.0079 100.477 28.6153C101.01 28.2288 101.256 27.7136 101.36 27.364C101.464 27.002 101.464 26.7877 101.494 26.7877C101.507 26.7877 101.55 27.002 101.483 27.3885C101.409 27.7688 101.182 28.3393 100.612 28.7932C100.066 29.2471 99.1334 29.517 98.2133 29.1919C97.2993 28.8913 96.5019 27.9221 96.5142 26.7874C96.5019 25.6526 97.2993 24.6834 98.2133 24.3828C99.1334 24.0516 100.066 24.3276 100.612 24.7815C101.176 25.2354 101.409 25.8059 101.483 26.1862C101.556 26.5727 101.513 26.7877 101.494 26.7877Z" fill="#263238"/>
<path d="M77.3412 75.6817C77.3412 75.6817 77.3228 75.5774 77.3105 75.3688C77.2982 75.148 77.2737 74.8474 77.2492 74.4549C77.2369 74.2524 77.2246 74.0316 77.2062 73.7862C77.1817 73.5409 77.1265 73.2771 77.0835 72.9827C76.9915 72.4061 76.9056 71.7314 76.6787 71.0014C76.3413 69.517 75.642 67.7688 74.5502 65.9102C73.4461 64.0638 71.8512 62.1316 69.6859 60.4939C67.5268 58.8683 64.7971 57.4882 61.6504 56.9361C60.8591 56.8257 60.0617 56.6601 59.2397 56.6601C58.8287 56.6478 58.4116 56.6049 57.9945 56.611C57.5774 56.6356 57.1541 56.654 56.7309 56.6785C56.5223 56.6908 56.3077 56.6908 56.093 56.7214L55.455 56.8196C55.0318 56.8932 54.5963 56.9423 54.173 57.0281C53.3327 57.2551 52.4616 57.4268 51.6335 57.7765C50.7809 58.0525 49.9712 58.4758 49.1493 58.8683C48.7444 59.0892 48.358 59.3407 47.9593 59.5799C47.5544 59.8068 47.1803 60.089 46.8061 60.3712C46.0332 60.9048 45.3523 61.5673 44.6469 62.2114C44.0028 62.9229 43.3342 63.6161 42.7822 64.4196C41.6474 65.9961 40.6598 67.7442 40.0587 69.6703C39.4391 71.5841 39.1018 73.6145 39.0772 75.6817C39.1018 77.7488 39.4391 79.7853 40.0587 81.6991C40.6598 83.6252 41.6474 85.3734 42.7822 86.9498C43.3342 87.7534 44.009 88.4527 44.6469 89.1581C45.3585 89.796 46.0332 90.4646 46.8122 90.9983C47.1864 91.2804 47.5544 91.5626 47.9654 91.7896C48.3641 92.0288 48.7506 92.2803 49.1554 92.5011C49.9835 92.8998 50.7871 93.3231 51.6397 93.593C52.4678 93.9426 53.3388 94.1082 54.1853 94.3413C54.6147 94.4272 55.0441 94.4824 55.4673 94.5499L56.1052 94.648C56.3199 94.6787 56.5285 94.6726 56.7432 94.691C57.1664 94.7155 57.5897 94.7339 58.0068 94.7584C58.4239 94.7646 58.841 94.7278 59.252 94.7094C60.0801 94.7032 60.8775 94.5437 61.6626 94.4333C64.8094 93.8751 67.539 92.495 69.6982 90.8695C71.8635 89.2317 73.4583 87.2995 74.5625 85.4531C75.6604 83.5945 76.3536 81.8463 76.691 80.3619C76.9118 79.632 77.0038 78.9634 77.0958 78.3806C77.1387 78.0923 77.1939 77.8224 77.2185 77.5771C77.2308 77.3317 77.2492 77.1047 77.2614 76.9085C77.286 76.5159 77.3105 76.2153 77.3228 75.9945C77.3228 75.7859 77.3412 75.6817 77.3412 75.6817C77.3412 75.6817 77.3473 75.7859 77.3412 75.9945C77.335 76.2153 77.3228 76.5159 77.3105 76.9085C77.3044 77.1109 77.2921 77.3378 77.286 77.5832C77.2676 77.8286 77.2185 78.0985 77.1755 78.3929C77.0897 78.9756 77.0161 79.6504 76.8014 80.3926C76.4763 81.8893 75.7954 83.662 74.7035 85.5451C73.6055 87.4222 72.0046 89.3789 69.8209 91.0535C67.6433 92.7097 64.8891 94.1205 61.6994 94.6971C60.902 94.8136 60.0923 94.9792 59.252 94.9854C58.8349 95.0038 58.4116 95.0406 57.9884 95.0345C57.5651 95.0161 57.1357 94.9915 56.7064 94.9731C56.4917 94.9608 56.277 94.9609 56.0623 94.9302L55.4182 94.832C54.9888 94.7646 54.5472 94.7094 54.1178 94.6235C53.2652 94.3904 52.3758 94.2186 51.5354 93.869C50.6644 93.593 49.8485 93.1636 49.0082 92.7649C48.5972 92.5441 48.2046 92.2864 47.7998 92.0472C47.3888 91.8202 47.0085 91.5319 46.6282 91.2436C45.843 90.7038 45.1499 90.0291 44.4261 89.3789C43.7759 88.6612 43.0889 87.9558 42.5245 87.1339C41.3714 85.5329 40.3592 83.754 39.752 81.7973C39.1202 79.8528 38.7767 77.7856 38.7521 75.6817C38.7767 73.5777 39.1202 71.5167 39.752 69.566C40.3654 67.6093 41.3714 65.8304 42.5245 64.2295C43.0889 63.4136 43.7698 62.7082 44.4261 61.9844C45.1499 61.3342 45.8369 60.6595 46.6282 60.1197C47.0085 59.8314 47.3827 59.5431 47.7998 59.3161C48.2046 59.0769 48.5972 58.8193 49.0082 58.5984C49.8485 58.1936 50.6644 57.7703 51.5354 57.4943C52.3758 57.1447 53.2652 56.9729 54.1178 56.7398C54.5533 56.654 54.9888 56.5988 55.4182 56.5313L56.0623 56.4331C56.277 56.4025 56.4917 56.4086 56.7064 56.3902C57.1357 56.3718 57.5651 56.3473 57.9884 56.3289C58.4116 56.3227 58.8349 56.3657 59.252 56.3779C60.0923 56.3841 60.8959 56.5497 61.6994 56.6662C64.8891 57.2428 67.6433 58.6536 69.8209 60.3098C72.0046 61.9783 73.5994 63.9412 74.7035 65.8182C75.7954 67.7013 76.4763 69.474 76.8014 70.9707C77.0161 71.7068 77.0958 72.3877 77.1755 72.9704C77.2123 73.2649 77.2614 73.5286 77.286 73.7801C77.2982 74.0255 77.3044 74.2524 77.3105 74.4549C77.3228 74.8474 77.335 75.148 77.3412 75.3688C77.3473 75.5774 77.3412 75.6817 77.3412 75.6817Z" fill="#263238"/>
<path d="M108.443 17.1329C108.443 17.2187 84.1647 17.2924 54.2246 17.2924C24.2723 17.2924 0 17.2187 0 17.1329C0 17.047 24.2723 16.9734 54.2246 16.9734C84.1647 16.9734 108.443 17.0409 108.443 17.1329Z" fill="#263238"/>
<path d="M24.4287 6.12796H7.33933V13.7893H24.4287V6.12796Z" fill="#455A64"/>
<path d="M24.4287 13.7893C24.4225 13.7832 24.411 13.5927 24.4049 13.237C24.3987 12.8567 24.3865 12.3414 24.3742 11.6973C24.3619 10.3478 24.3374 8.45243 24.3129 6.12765L24.4294 6.24419C19.9884 6.25646 13.9709 6.26873 7.34004 6.28713C7.19896 6.42821 7.5302 6.09084 7.49953 6.12765V7.13362C7.49953 7.46486 7.49953 7.7961 7.49953 8.12733C7.49953 8.78367 7.49953 9.43388 7.49953 10.0779C7.49953 11.36 7.49339 12.599 7.49339 13.789L7.34004 13.6357C12.2718 13.6663 16.5165 13.6909 19.559 13.7093C21.0557 13.7277 22.258 13.7399 23.1229 13.7522C23.5216 13.7584 23.8405 13.7645 24.0859 13.7706C24.3067 13.7768 24.4225 13.7832 24.4287 13.7893C24.4348 13.7955 24.3312 13.8013 24.1227 13.8074C23.8835 13.8136 23.5768 13.8197 23.1903 13.8258C22.3377 13.8381 21.1477 13.8504 19.6633 13.8688C16.5901 13.8872 12.3086 13.9117 7.34004 13.9424H7.18669V13.789C7.18669 12.599 7.18056 11.36 7.18056 10.0779C7.18056 9.44001 7.18056 8.78367 7.18056 8.12733C7.18056 7.7961 7.18056 7.46486 7.18056 7.13362V6.12765C7.14376 6.16445 7.48113 5.82708 7.34004 5.96816C13.9709 5.98656 19.9884 5.99883 24.4294 6.0111H24.5459V6.12765C24.5214 8.4831 24.4969 10.403 24.4846 11.7648C24.4723 12.3966 24.4601 12.8996 24.4539 13.2738C24.4417 13.6234 24.4348 13.8016 24.4287 13.7893Z" fill="#263238"/>
<path d="M72.0842 16.6111C71.9983 16.6111 71.9247 13.1884 71.9247 8.96203C71.9247 4.7357 71.9983 1.31293 72.0842 1.31293C72.1701 1.31293 72.2437 4.7357 72.2437 8.96203C72.2437 13.1884 72.1701 16.6111 72.0842 16.6111Z" fill="#263238"/>
<path d="M34.0515 14.4339C36.5211 14.4339 38.5232 12.4318 38.5232 9.9622C38.5232 7.49255 36.5211 5.49051 34.0515 5.49051C31.5818 5.49051 29.5798 7.49255 29.5798 9.9622C29.5798 12.4318 31.5818 14.4339 34.0515 14.4339Z" fill="white"/>
<path d="M38.5232 9.9622C38.4864 9.9622 38.5045 9.56331 38.3205 8.88244C38.1426 8.21996 37.6887 7.24466 36.6889 6.49631C36.192 6.12827 35.5663 5.82157 34.8548 5.69889C34.1432 5.58234 33.3397 5.60688 32.5791 5.90131C31.8185 6.17734 31.0947 6.6926 30.5794 7.41027C30.0519 8.11568 29.7513 9.02352 29.7452 9.96202C29.7513 10.9005 30.0519 11.8084 30.5794 12.5138C31.0947 13.2314 31.8185 13.7528 32.5791 14.0227C33.3397 14.3172 34.1432 14.3417 34.8548 14.2252C35.5725 14.1025 36.192 13.7958 36.6889 13.4277C37.6887 12.6794 38.1426 11.7041 38.3205 11.0416C38.5045 10.3607 38.4864 9.95606 38.5232 9.9622C38.5354 9.9622 38.5413 10.0602 38.5413 10.2503C38.5475 10.4405 38.5229 10.7165 38.4432 11.0723C38.296 11.7654 37.8605 12.7959 36.8238 13.6118C36.3086 14.0105 35.6583 14.3478 34.8977 14.4889C34.1432 14.6239 33.2906 14.6116 32.4748 14.3049C31.659 14.0166 30.88 13.4707 30.3218 12.7039C29.7513 11.9494 29.4262 10.9741 29.4201 9.96816C29.4262 8.96218 29.7513 7.98687 30.3218 7.23239C30.88 6.46564 31.659 5.91358 32.4748 5.63141C33.2906 5.32471 34.1432 5.31244 34.8977 5.44739C35.6583 5.58847 36.3086 5.93198 36.8238 6.32455C37.8605 7.13424 38.296 8.17089 38.4432 8.86404C38.5229 9.21367 38.5475 9.49584 38.5413 9.68599C38.5413 9.86388 38.5354 9.9622 38.5232 9.9622Z" fill="#263238"/>
<path d="M116.85 31.6207C102.644 31.6207 91.1303 50.4154 91.1303 73.5958C91.1303 96.7762 102.644 115.571 116.85 115.571C131.057 115.571 142.57 96.7762 142.57 73.5958C142.57 50.4154 131.057 31.6207 116.85 31.6207ZM113.802 102.438C104.717 102.438 97.3563 89.4276 97.3563 73.3811C97.3563 57.3345 104.717 44.3243 113.802 44.3243C122.886 44.3243 130.247 57.3345 130.247 73.3811C130.247 89.4276 122.88 102.438 113.802 102.438Z" fill="#E0E0E0"/>
<path d="M113.802 102.438C113.802 102.438 113.931 102.42 114.176 102.407C114.305 102.401 114.458 102.389 114.636 102.377C114.82 102.352 115.029 102.321 115.268 102.285C116.219 102.125 117.624 101.745 119.182 100.763C120.746 99.8003 122.426 98.2484 123.923 96.1138C125.432 93.9853 126.788 91.3047 127.831 88.1886C129.904 81.9688 130.83 73.9639 129.462 65.3701C129.113 63.2232 128.61 61.0518 127.898 58.8926C127.193 56.7335 126.279 54.5866 125.082 52.5562C123.899 50.5197 122.402 48.5998 120.525 47.0663C118.654 45.545 116.299 44.4838 113.808 44.4838C111.318 44.4777 108.956 45.5389 107.085 47.0601C105.202 48.5936 103.705 50.5136 102.522 52.5501C101.332 54.5866 100.412 56.7335 99.7061 58.8926C98.9946 61.0518 98.4854 63.2232 98.1419 65.3701C96.7741 73.9639 97.6942 81.9688 99.7736 88.1948C100.816 91.3109 102.166 93.9914 103.681 96.1199C105.184 98.2546 106.864 99.8065 108.423 100.77C109.981 101.751 111.385 102.131 112.336 102.291C112.575 102.328 112.784 102.358 112.968 102.383C113.146 102.395 113.299 102.401 113.428 102.413C113.673 102.42 113.802 102.438 113.802 102.438C113.802 102.438 113.673 102.444 113.428 102.438C113.299 102.432 113.146 102.432 112.962 102.426C112.778 102.401 112.563 102.377 112.324 102.346C111.367 102.205 109.938 101.843 108.355 100.868C106.766 99.9107 105.055 98.3588 103.534 96.2181C102 94.0834 100.62 91.3906 99.5589 88.2623C97.4427 82.0117 96.4919 73.97 97.8536 65.3211C98.1971 63.1619 98.7063 60.9721 99.4178 58.7945C100.123 56.6169 101.049 54.4516 102.252 52.3906C103.448 50.3296 104.963 48.3789 106.883 46.8148C108.791 45.2567 111.226 44.1587 113.802 44.1649C116.378 44.1649 118.814 45.2629 120.721 46.8209C122.641 48.3851 124.156 50.3418 125.352 52.3967C126.555 54.4577 127.481 56.6231 128.186 58.8006C128.904 60.9782 129.407 63.168 129.75 65.3272C131.112 73.9762 130.161 82.0178 128.045 88.2684C126.984 91.3967 125.61 94.0896 124.07 96.2242C123.304 97.2915 122.494 98.2177 121.684 98.9968C120.862 99.7696 120.034 100.389 119.249 100.874C117.666 101.849 116.237 102.211 115.28 102.352C115.041 102.383 114.826 102.407 114.642 102.432C114.458 102.438 114.305 102.438 114.176 102.444C113.925 102.438 113.802 102.438 113.802 102.438Z" fill="#263238"/>
<path d="M116.849 31.6208C116.849 31.6208 117.039 31.6146 117.407 31.6269C117.591 31.633 117.824 31.6392 118.094 31.6453C118.364 31.6637 118.683 31.7066 119.039 31.7496C120.456 31.9459 122.584 32.3875 124.989 33.7063C127.418 34.9761 130.061 37.1414 132.509 40.1593C134.956 43.1834 137.177 47.0723 138.901 51.6544C140.624 56.2304 141.869 61.4873 142.409 67.2164C142.943 72.9394 142.802 79.1348 141.667 85.508C140.514 91.8506 138.373 98.4447 134.521 104.376C132.583 107.314 130.209 110.087 127.221 112.209C124.265 114.332 120.64 115.743 116.855 115.736C113.07 115.749 109.439 114.338 106.488 112.216C103.501 110.093 101.121 107.321 99.189 104.382C95.3368 98.4569 93.1899 91.8567 92.0429 85.5142C90.9081 79.1409 90.767 72.9456 91.3006 67.2226C91.8404 61.4934 93.0856 56.2365 94.8093 51.6606C96.5329 47.0846 98.7473 43.1895 101.201 40.1654C103.648 37.1475 106.292 34.9822 108.721 33.7125C111.132 32.3937 113.26 31.952 114.671 31.7557C115.027 31.7189 115.346 31.6698 115.616 31.6514C115.886 31.6453 116.113 31.6392 116.303 31.633C116.665 31.6208 116.849 31.6208 116.849 31.6208C116.849 31.6208 116.659 31.6392 116.291 31.6576C116.107 31.6698 115.873 31.6821 115.604 31.6944C115.334 31.7189 115.021 31.768 114.665 31.8109C113.26 32.0256 111.15 32.4857 108.764 33.8167C106.36 35.0926 103.747 37.2579 101.324 40.2697C98.9007 43.2815 96.7047 47.1643 95.0056 51.7281C93.3003 56.2918 92.0735 61.5302 91.546 67.2348C91.0246 72.9333 91.178 79.1103 92.3189 85.4528C93.4721 91.7709 95.6128 98.3281 99.4405 104.204C101.36 107.112 103.722 109.86 106.666 111.952C109.58 114.043 113.144 115.424 116.849 115.411C120.554 115.417 124.111 114.043 127.031 111.946C129.976 109.86 132.331 107.112 134.251 104.198C138.072 98.322 140.213 91.7647 141.366 85.4528C142.507 79.1164 142.655 72.9395 142.139 67.241C141.612 61.5363 140.385 56.2979 138.686 51.7342C136.987 47.1705 134.791 43.2877 132.368 40.2759C129.945 37.2579 127.332 35.0987 124.927 33.8167C122.541 32.4857 120.431 32.0317 119.026 31.8109C118.671 31.768 118.358 31.7189 118.088 31.6944C117.818 31.6821 117.591 31.6698 117.401 31.6576C117.039 31.6392 116.849 31.6208 116.849 31.6208Z" fill="#263238"/>
<path d="M103.019 78.5519C102.946 78.4967 106.509 73.5343 110.969 67.4616C115.428 61.3889 119.103 56.5063 119.176 56.5615C119.25 56.6167 115.686 61.5791 111.226 67.6518C106.761 73.7183 103.087 78.601 103.019 78.5519Z" fill="#263238"/>
<path d="M102.949 87.3546C102.876 87.2994 105.673 83.3797 109.188 78.5891C112.709 73.7984 115.616 69.9585 115.684 70.0137C115.757 70.0689 112.96 73.9886 109.445 78.7792C105.93 83.5638 103.023 87.4036 102.949 87.3546Z" fill="#263238"/>
<path d="M117.329 38.3811C116.912 38.3811 116.495 38.4056 116.084 38.4424C127.107 39.5159 135.842 54.7466 135.842 73.3756C135.842 92.0046 127.101 107.235 116.084 108.309C116.495 108.352 116.912 108.37 117.329 108.37C128.929 108.37 138.338 92.6977 138.338 73.3695C138.338 54.0473 128.935 38.3811 117.329 38.3811Z" fill="black"/>
<path d="M135.84 73.381C135.84 73.381 135.828 73.2276 135.816 72.9209C135.81 72.6081 135.798 72.1542 135.779 71.5653C135.712 70.3753 135.644 68.621 135.356 66.3821C135.074 64.1432 134.583 61.4135 133.706 58.3281C132.798 55.2611 131.51 51.8077 129.387 48.3726C128.326 46.6674 127.063 44.956 125.505 43.4102C124.726 42.6373 123.867 41.9135 122.947 41.2449C122.008 40.6008 121.002 40.0181 119.917 39.5581C117.745 38.6502 115.255 38.2822 112.777 38.687C110.298 39.098 107.912 40.2696 105.839 41.9197C103.778 43.5942 101.993 45.6921 100.515 48.0537C99.7664 49.2253 99.0916 50.4643 98.4844 51.7525C97.8648 53.0345 97.3312 54.3717 96.8527 55.7334C94.9205 61.205 94.0004 67.2224 93.982 73.3687C94.0004 79.515 94.9205 85.5386 96.8527 91.0101C97.3373 92.378 97.871 93.7091 98.4844 94.9911C99.0916 96.2792 99.7602 97.5183 100.515 98.6899C101.993 101.051 103.784 103.149 105.839 104.824C107.906 106.48 110.298 107.646 112.777 108.063C115.255 108.468 117.751 108.099 119.917 107.192C121.002 106.732 122.008 106.149 122.947 105.505C123.867 104.836 124.726 104.112 125.505 103.339C127.063 101.788 128.326 100.082 129.387 98.3771C131.51 94.942 132.798 91.4886 133.706 88.4216C134.583 85.3362 135.074 82.6127 135.35 80.3676C135.638 78.1287 135.706 76.3744 135.773 75.1844C135.791 74.5955 135.804 74.1477 135.81 73.8288C135.828 73.5343 135.84 73.381 135.84 73.381C135.84 73.381 135.847 73.5343 135.853 73.841C135.853 74.1539 135.853 74.6078 135.847 75.1967C135.804 76.3867 135.748 78.1471 135.485 80.3922C135.221 82.6372 134.749 85.3791 133.884 88.4768C132.988 91.5622 131.712 95.034 129.59 98.4997C128.523 100.223 127.259 101.947 125.689 103.523C124.904 104.309 124.039 105.045 123.106 105.719C122.155 106.376 121.131 106.971 120.033 107.443C117.825 108.375 115.273 108.762 112.74 108.345C110.206 107.928 107.771 106.738 105.667 105.063C103.576 103.364 101.76 101.242 100.269 98.8617C99.5087 97.6778 98.834 96.4265 98.2206 95.1322C97.5949 93.844 97.0551 92.4946 96.5705 91.1205C94.6199 85.6122 93.6937 79.5579 93.6753 73.3749C93.6937 67.1979 94.6199 61.1436 96.5705 55.6353C97.0613 54.2613 97.5949 52.9179 98.2206 51.6237C98.834 50.3294 99.5087 49.078 100.269 47.8942C101.766 45.5142 103.576 43.3918 105.667 41.6927C107.771 40.0181 110.206 38.8281 112.74 38.411C115.273 38 117.825 38.3865 120.027 39.3127C121.131 39.785 122.155 40.3739 123.106 41.0364C124.039 41.7172 124.904 42.4472 125.689 43.2323C127.259 44.8026 128.523 46.5324 129.59 48.25C131.712 51.7157 132.988 55.1875 133.884 58.2729C134.749 61.3706 135.221 64.1125 135.485 66.3575C135.755 68.6087 135.804 70.363 135.847 71.553C135.847 72.1419 135.853 72.5958 135.853 72.9087C135.847 73.2215 135.84 73.381 135.84 73.381Z" fill="#263238"/>
<path d="M56.2472 114.89C56.2227 114.884 56.2472 114.608 56.3024 114.105C56.3699 113.54 56.4497 112.829 56.5539 111.982C56.7686 110.191 57.0508 107.713 57.3084 104.971C57.5599 102.229 57.7378 99.745 57.8605 97.9416C57.9157 97.0889 57.9648 96.3774 58.0077 95.8069C58.0445 95.3039 58.0752 95.0279 58.0997 95.0279C58.1243 95.0279 58.1304 95.3101 58.1304 95.8131C58.1304 96.3161 58.1181 97.0521 58.0874 97.9538C58.0261 99.7572 57.885 102.254 57.6335 105.002C57.3759 107.75 57.0569 110.228 56.787 112.013C56.6521 112.909 56.5294 113.626 56.4374 114.123C56.327 114.62 56.2656 114.896 56.2472 114.89Z" fill="#263238"/>
<path d="M78.9976 108.026C78.9915 108.026 79.0283 108.032 78.9915 108.051C78.9669 108.045 78.9547 108.032 78.9301 108.014C78.8811 107.977 78.8258 107.922 78.7461 107.842C78.6602 107.75 78.5682 107.652 78.4639 107.548C78.4087 107.487 78.3474 107.425 78.286 107.358L78.1879 107.253L78.1388 107.204L78.1143 107.186C78.1143 107.186 78.102 107.186 78.1388 107.192C78.1388 107.192 78.1572 107.198 78.1879 107.174C78.2186 107.143 78.2124 107.119 78.2124 107.125C78.2124 107.119 78.2124 107.112 78.2124 107.106L78.0714 107.174C77.0838 105.873 75.2068 103.328 72.9985 100.457C71.373 98.3653 69.9009 96.476 68.7783 95.0345C68.2754 94.3782 67.846 93.8261 67.5086 93.3845C67.2142 92.9919 67.0547 92.7649 67.0731 92.7527C67.0915 92.7404 67.2755 92.9367 67.6068 93.3047C67.9319 93.6728 68.3919 94.2126 68.9562 94.8873C70.0849 96.2368 71.6184 98.1261 73.25 100.255C75.4644 103.131 77.2862 105.72 78.2002 107.076L78.0591 107.143C78.0591 107.131 78.053 107.119 78.053 107.106C78.053 107.106 78.0468 107.082 78.0836 107.045C78.1204 107.02 78.1388 107.027 78.145 107.027C78.194 107.039 78.194 107.045 78.2002 107.051L78.237 107.082L78.2922 107.143L78.3842 107.253C78.4394 107.327 78.4946 107.395 78.5498 107.456C78.6418 107.572 78.7216 107.677 78.8013 107.775C78.9363 107.959 79.016 108.069 78.9976 108.026Z" fill="#263238"/>
<path d="M68.0585 37.1902C68.1444 37.2148 67.0464 41.6497 65.611 47.0967C64.1757 52.5498 62.9366 56.9479 62.8507 56.9233C62.7648 56.8988 63.8628 52.4639 65.2982 47.0169C66.7397 41.5699 67.9726 37.1657 68.0585 37.1902Z" fill="#263238"/>
<path d="M44.5965 38.0925C44.6149 38.0863 44.7192 38.3562 44.8848 38.847C45.0627 39.399 45.2958 40.0983 45.5656 40.9264C46.1361 42.6869 46.9335 45.1159 47.8598 47.7781C48.786 50.4464 49.6693 52.8386 50.3134 54.5746C50.6139 55.3965 50.8716 56.0835 51.0679 56.6295C51.2457 57.114 51.3316 57.3901 51.3071 57.3962C51.2887 57.4023 51.1599 57.1447 50.9513 56.6724C50.7427 56.2001 50.4483 55.5069 50.0987 54.6543C49.3994 52.9368 48.4854 50.5507 47.5531 47.8824C46.6268 45.2141 45.8601 42.7727 45.3448 40.9939C45.0872 40.1044 44.8848 39.3806 44.7621 38.8776C44.6394 38.3808 44.5781 38.0986 44.5965 38.0925Z" fill="#263238"/>
<path d="M40.832 84.0663C40.8811 84.1399 36.9737 86.8389 32.1095 90.0961C27.2391 93.3532 23.2581 95.9295 23.209 95.8559C23.1599 95.7823 27.0673 93.0833 31.9316 89.8262C36.7958 86.569 40.7829 83.9927 40.832 84.0663Z" fill="#263238"/>
<path d="M38.9119 75.6815C38.9058 75.6999 38.6175 75.6447 38.0961 75.522C37.5134 75.381 36.7773 75.2092 35.894 74.9945C34.0354 74.5529 31.4591 73.9824 28.6007 73.3997C25.7422 72.8231 23.1475 72.3385 21.2644 71.9766C20.375 71.7987 19.6266 71.6576 19.0439 71.5411C18.5225 71.4307 18.2342 71.3632 18.2342 71.3386C18.2403 71.3141 18.5348 71.3448 19.0623 71.4184C19.5898 71.492 20.3566 71.6024 21.3012 71.7558C23.1905 72.0563 25.7974 72.5102 28.662 73.0868C31.5266 73.6634 34.0967 74.2768 35.9492 74.7737C36.8754 75.0191 37.6177 75.2338 38.1268 75.3994C38.6359 75.5589 38.9181 75.657 38.9119 75.6815Z" fill="#263238"/>
<path d="M88.3648 85.9924C90.2357 81.6066 92.1495 76.9325 91.4564 72.2093C90.7264 67.2591 86.9356 62.9347 82.1695 61.4012C77.4034 59.8738 71.895 61.1251 68.1471 64.4436C64.3993 67.7621 62.4916 72.9822 63.0498 77.9569C59.7558 77.3005 56.2226 77.9507 53.3703 79.7234C50.518 81.5023 48.3834 84.3914 47.5246 87.6363L59.1424 103.695L77.3359 97.5795L88.3648 85.9924Z" fill="#E0E0E0"/>
<path d="M88.0437 76.6443C83.5352 77.0737 79.2107 78.963 76.2848 82.4225C73.365 85.8821 71.5923 90.1452 69.8686 94.3348C68.2493 88.4645 62.9249 83.7965 56.8952 82.9501C50.8655 82.1036 44.4616 85.1276 41.2903 90.3231C40.1555 86.2379 36.8125 82.8396 32.7456 81.6374C28.6788 80.4351 24.0292 81.4718 20.8579 84.2873C20.8579 84.2873 22.3669 99.3094 39.401 108.645C56.4352 117.981 71.2242 111.896 79.634 105.229C88.0437 98.5611 91.626 89.2313 91.626 89.2313C91.626 89.2313 91.491 76.3131 88.0437 76.6443Z" fill="#FAFAFA"/>
<path d="M36.5825 100.647L46.6362 108.529L52.6413 101.309L61.9835 108.382C61.9835 108.382 66.5717 98.5182 59.8672 92.7706C53.1627 87.023 41.2873 90.3231 41.2873 90.3231L36.5825 100.647Z" fill="#579540"/>
<path d="M63.1898 104.444C63.1775 104.444 63.202 104.303 63.245 104.045C63.3002 103.788 63.3738 103.407 63.4229 102.91C63.521 101.929 63.5946 100.463 63.1407 98.7394C62.7113 97.028 61.7789 95.059 60.1289 93.3844C59.3131 92.5502 58.3194 91.8079 57.203 91.1945C56.0805 90.5934 54.8414 90.1211 53.5226 89.8267C51.2407 89.3237 48.965 89.2991 46.9101 89.612C44.8491 89.9125 42.9598 90.1886 41.3036 90.4339L41.2361 90.4462L41.1932 90.4033C40.4019 89.6242 39.4512 89.1948 38.5924 88.974C37.7275 88.7471 36.9423 88.7164 36.3105 88.7225C35.0347 88.7655 34.3415 88.9679 34.3354 88.9311C34.3354 88.9188 34.501 88.8636 34.8322 88.7839C35.1635 88.7103 35.6603 88.6183 36.3044 88.5815C36.9485 88.5508 37.7459 88.5631 38.6415 88.7777C39.5309 88.9863 40.5307 89.4157 41.3711 90.2254L41.2607 90.1886C42.9169 89.9309 44.8123 89.6365 46.8733 89.3114C48.9405 88.9863 51.2653 88.9986 53.59 89.5138C54.9334 89.8205 56.2031 90.299 57.3502 90.9185C58.485 91.5503 59.5032 92.3171 60.3375 93.1758C62.012 94.8995 62.9505 96.9298 63.3554 98.678C63.7909 100.438 63.6805 101.929 63.5394 102.917C63.4719 103.413 63.3738 103.794 63.3002 104.045C63.245 104.315 63.202 104.45 63.1898 104.444Z" fill="#263238"/>
<path d="M64.5112 110.541C64.4806 110.578 63.8242 110.038 62.763 109.167C61.7019 108.296 60.242 107.1 58.5919 105.812C56.948 104.524 55.4329 103.389 54.3349 102.567C53.2369 101.745 52.5561 101.242 52.5806 101.199C52.5929 101.181 52.7769 101.285 53.1081 101.487C53.4332 101.69 53.8994 101.997 54.4637 102.383C55.5985 103.156 57.1382 104.266 58.7882 105.56C60.4383 106.855 61.8859 108.082 62.9041 108.996C63.4133 109.456 63.8242 109.83 64.1003 110.1C64.3824 110.37 64.5296 110.529 64.5112 110.541Z" fill="#263238"/>
<path d="M89.1676 76.123C89.1676 76.1291 89.1246 76.1414 89.0326 76.1598C88.9222 76.1843 88.7873 76.2088 88.6217 76.2457C88.2598 76.3193 87.7322 76.4235 87.0514 76.5953C85.7019 76.9327 83.739 77.5277 81.5123 78.7115C80.4021 79.3065 79.2428 80.0671 78.0957 81.0179C76.9609 81.9748 75.8691 83.1464 74.8692 84.5082C73.8632 85.8576 72.9247 87.3789 72.0844 89.0228C71.2502 90.6728 70.5079 92.4578 70.0234 94.3716L69.8209 95.1691L69.7105 94.3532C69.551 93.1755 69.1339 91.9671 68.5328 90.8385C66.4104 87.0047 62.7729 84.3303 59.0741 83.5022C55.3631 82.6128 51.8237 83.2139 49.1738 84.2812C46.4933 85.3485 44.5979 86.7839 43.3772 87.8205C42.7638 88.3419 42.3099 88.7836 42.0093 89.078C41.8682 89.2191 41.7578 89.3295 41.6658 89.4215C41.5861 89.4951 41.5431 89.5319 41.5431 89.5319C41.537 89.5258 41.5738 89.4828 41.6474 89.4031C41.7333 89.305 41.8376 89.1884 41.9664 89.0412C42.2547 88.7284 42.6963 88.2744 43.3036 87.7347C44.512 86.6673 46.3951 85.189 49.1002 84.0788C51.7747 82.9747 55.3631 82.3306 59.1477 83.2262C62.9263 84.0604 66.6558 86.7839 68.8211 90.6974C69.4406 91.8567 69.87 93.1019 70.0356 94.3226L69.7228 94.3042C71.9065 86.5999 76.7769 80.7112 81.4142 78.5336C83.6776 77.3621 85.6589 76.7977 87.0268 76.4972C87.7138 76.3377 88.2475 76.2518 88.6094 76.1966C88.775 76.172 88.9161 76.1536 89.0265 76.1414C89.1185 76.1168 89.1676 76.1168 89.1676 76.123Z" fill="#263238"/>
</svg>
